<?xml version="1.0" standalone="no"?>
<!DOCTYPE svg PUBLIC "-//W3C//DTD SVG 20010904//EN"
 "http://www.w3.org/TR/2001/REC-SVG-20010904/DTD/svg10.dtd">
<svg version="1.0" xmlns="http://www.w3.org/2000/svg"
 width="2000.000000pt" height="1414.000000pt" viewBox="0 0 2000.000000 1414.000000"
 preserveAspectRatio="xMidYMid meet">

<g transform="translate(0.000000,1414.000000) scale(0.100000,-0.100000)"
fill="#000000" stroke="none">
<path d="M9590 13314 c-31 -8 -573 -34 -697 -34 -71 0 -132 -2 -134 -4 -2 -2
-3 -46 -1 -96 l3 -92 79 7 c93 8 564 32 568 29 2 -1 -19 -38 -47 -83 -167
-266 -289 -597 -327 -887 l-6 -51 113 5 c63 2 115 5 116 6 0 0 6 44 12 96 16
137 48 279 88 400 57 172 173 401 250 498 l35 43 -7 84 c-7 84 -9 88 -45 79z"/>
<path d="M10089 13266 c-60 -16 -129 -57 -166 -100 -48 -54 -66 -112 -62 -204
3 -66 9 -86 34 -128 17 -27 51 -63 77 -80 48 -33 51 -44 12 -44 -64 0 -178
-80 -214 -150 -28 -56 -42 -147 -30 -208 29 -153 151 -249 366 -287 350 -61
569 73 552 339 -3 39 -13 86 -22 104 -29 55 -88 114 -140 138 -41 19 -46 24
-30 29 139 46 214 144 214 284 0 74 -44 167 -100 211 -114 91 -344 136 -491
96z m249 -161 c123 -37 174 -141 119 -245 -39 -74 -128 -104 -240 -81 -97 21
-155 75 -164 154 -16 137 122 220 285 172z m-25 -521 c104 -36 158 -124 137
-220 -23 -100 -89 -145 -214 -146 -90 0 -127 7 -188 38 -162 82 -133 298 47
345 44 12 163 3 218 -17z"/>
<path d="M8380 13219 c-14 -6 -97 -30 -185 -55 -88 -24 -168 -47 -178 -50 -17
-5 -18 -1 -12 40 l7 47 -68 -6 c-94 -9 -94 -9 -94 -52 0 -43 -33 -170 -48
-185 -6 -6 -14 8 -22 41 -13 55 -15 56 -57 40 -15 -6 -75 -24 -133 -40 -58
-17 -113 -32 -123 -35 -17 -5 -18 -1 -12 38 l7 44 -79 -7 c-43 -4 -79 -8 -80
-8 -2 -1 -3 -18 -3 -38 -1 -53 -41 -163 -89 -239 -41 -65 -48 -84 -32 -84 4 0
30 -16 56 -37 l48 -36 18 22 18 22 10 -38 c5 -21 13 -50 17 -65 7 -33 5 -32
69 -12 83 25 371 104 382 104 10 0 38 -79 30 -86 -4 -4 -332 -95 -391 -108
l-28 -7 8 -77 c5 -42 8 -143 8 -223 l-1 -146 78 20 79 20 6 39 c4 22 12 42 18
44 53 20 225 60 219 51 -52 -90 -203 -234 -331 -315 l-73 -46 58 -53 c32 -28
62 -52 67 -53 19 -1 146 103 227 187 48 48 108 121 134 162 33 51 50 69 55 60
8 -15 66 -226 75 -270 l5 -27 77 20 c43 11 80 21 82 23 1 2 -9 39 -23 82 -14
43 -41 131 -60 195 l-33 118 36 10 c20 5 101 28 181 49 79 22 146 38 148 36 8
-7 22 -82 22 -117 0 -49 -21 -62 -129 -82 -46 -9 -85 -16 -87 -16 -4 0 54
-109 66 -123 8 -9 186 35 228 57 17 9 40 28 51 42 28 35 27 118 -2 284 -20
112 -24 125 -42 124 -11 -1 -126 -31 -256 -68 -130 -36 -241 -66 -246 -66 -13
0 -35 82 -25 91 8 8 421 119 441 119 8 0 11 6 6 18 -9 24 -70 238 -82 287 -11
47 -14 47 -120 17 -40 -11 -73 -19 -73 -17 0 2 21 15 47 31 l47 27 -43 39
c-24 21 -42 41 -39 44 3 2 59 18 124 35 65 16 119 31 121 33 8 8 -30 136 -41
135 -6 0 -22 -5 -36 -10z m-277 -290 c27 -28 45 -54 41 -59 -11 -10 -243 -74
-248 -69 -2 2 12 39 32 82 30 64 42 79 67 86 50 15 56 13 108 -40z m-333 -38
c0 -5 -7 -14 -15 -21 -22 -19 -18 -27 18 -39 17 -6 42 -19 55 -29 24 -18 23
-18 -80 -46 -57 -16 -112 -31 -123 -33 -11 -3 2 10 28 28 l48 32 -37 38 c-21
21 -36 41 -33 43 7 7 102 35 122 35 9 1 17 -3 17 -8z m-245 -123 c25 -28 42
-55 38 -59 -12 -11 -221 -64 -228 -58 -3 3 11 40 30 82 35 75 41 81 97 86 9 0
37 -22 63 -51z m753 -50 c6 -23 9 -44 7 -46 -5 -6 -278 -82 -292 -82 -12 0
-40 76 -32 85 5 5 279 83 295 84 6 1 16 -18 22 -41z m-399 -335 c16 -57 14
-61 -31 -73 -24 -6 -90 -24 -148 -41 -58 -16 -109 -29 -113 -29 -4 0 -7 22 -7
50 0 48 1 49 38 59 20 6 82 24 137 40 55 16 103 30 107 30 4 1 12 -16 17 -36z"/>
<path d="M11135 13108 c-14 -66 -409 -1152 -427 -1175 -11 -14 -4 -18 64 -42
29 -11 61 -22 71 -26 13 -6 20 1 32 29 8 20 19 36 24 36 4 0 50 -16 102 -34
52 -19 234 -85 404 -147 171 -61 320 -115 332 -120 22 -8 22 -10 7 -45 -8 -20
-14 -37 -12 -38 13 -9 152 -55 156 -51 2 2 28 73 57 157 71 208 308 862 351
971 20 49 34 90 32 91 -1 2 -52 20 -113 40 -143 49 -922 331 -999 362 -33 13
-63 24 -67 24 -4 0 -11 -15 -14 -32z m177 -187 c394 -144 779 -281 787 -281 5
0 12 -4 15 -9 4 -7 -297 -858 -307 -868 -3 -2 -859 306 -864 311 -2 1 53 155
120 342 68 186 138 381 157 432 18 50 34 92 36 92 2 0 27 -9 56 -19z"/>
<path d="M11345 12719 c-2 -8 -29 -84 -59 -169 -47 -135 -109 -302 -130 -351
-6 -13 37 -31 241 -104 136 -48 260 -94 275 -101 35 -18 48 -18 48 1 0 12 161
464 184 515 5 13 -42 34 -256 112 -145 52 -271 99 -280 103 -11 4 -20 2 -23
-6z m240 -224 c61 -21 114 -41 118 -45 7 -6 -78 -256 -93 -273 -6 -7 -243 72
-256 85 -4 4 29 99 87 257 5 12 15 21 22 19 6 -3 62 -22 122 -43z"/>
<path d="M9794 11990 c-25 -10 -42 -55 -90 -230 -68 -251 -153 -585 -164 -645
-12 -60 -60 -247 -70 -270 -28 -63 -23 -91 13 -72 42 23 97 69 91 78 -3 5 6
57 20 114 55 227 110 462 122 530 4 22 13 54 20 72 8 17 16 46 18 65 8 51 24
98 26 73 2 -29 -1 -149 -5 -182 -1 -15 -6 -104 -9 -198 -4 -93 -9 -207 -12
-252 -3 -46 -1 -83 3 -83 5 0 41 20 81 45 40 25 75 45 80 45 4 0 18 9 31 19
23 17 23 20 12 87 -6 38 -13 89 -16 114 -3 25 -10 77 -15 115 -5 39 -14 115
-20 170 -29 247 -56 396 -73 407 -14 9 -16 9 -43 -2z"/>
<path d="M9205 11959 c-113 -9 -222 -19 -255 -24 -76 -10 -128 -17 -155 -20
-192 -18 -694 -120 -795 -162 -8 -3 -19 -7 -25 -8 -79 -19 -348 -106 -400
-130 -16 -8 -82 -34 -147 -59 -117 -46 -419 -192 -470 -228 -15 -10 -71 -42
-125 -70 -54 -28 -102 -57 -106 -65 -4 -7 -13 -13 -20 -13 -11 0 -116 -66
-127 -80 -3 -3 -27 -19 -55 -35 -46 -26 -173 -112 -185 -125 -3 -3 -36 -26
-75 -52 -123 -82 -190 -130 -205 -147 -8 -10 -35 -33 -60 -52 -65 -49 -64 -48
-136 -114 -126 -114 -286 -280 -372 -385 -47 -58 -89 -107 -92 -110 -8 -7
-122 -149 -163 -201 -18 -24 -68 -98 -111 -164 -43 -66 -86 -131 -95 -145 -21
-30 -61 -100 -112 -195 -20 -38 -56 -105 -79 -149 -23 -43 -43 -84 -45 -90 -2
-10 -27 -67 -80 -181 -50 -109 -85 -194 -85 -207 0 -8 -4 -18 -9 -23 -5 -6
-21 -50 -36 -100 -16 -49 -32 -97 -37 -105 -4 -8 -15 -42 -23 -75 -9 -33 -18
-67 -20 -75 -93 -321 -188 -733 -199 -865 -4 -38 -9 -86 -11 -105 -3 -19 -7
-61 -10 -92 l-4 -58 37 0 c52 1 232 18 262 25 22 5 147 24 160 25 3 0 5 19 5
42 1 126 22 275 80 560 2 9 10 43 19 75 8 32 24 103 36 158 12 55 30 132 42
170 44 149 71 233 95 295 14 36 32 83 41 105 15 40 91 207 97 213 4 4 314
-156 347 -180 23 -16 32 -17 43 -8 8 7 15 17 15 22 0 5 10 22 22 38 21 29 21
30 3 50 -10 11 -25 22 -35 25 -28 9 -293 159 -318 180 -3 3 19 46 28 55 3 3
30 46 59 95 30 50 72 115 94 145 23 30 59 80 81 110 22 30 59 80 83 112 24 31
43 61 43 67 0 6 4 11 9 11 4 0 20 17 33 38 71 107 324 403 422 494 71 65 159
138 166 138 8 0 155 -154 230 -239 24 -28 51 -53 58 -56 19 -7 71 25 78 48 6
19 -28 71 -75 116 -14 14 -39 41 -56 62 -16 20 -54 64 -83 97 l-53 61 218 144
c120 79 228 149 240 155 12 7 28 18 36 26 21 21 169 96 189 96 9 0 20 5 23 10
12 20 130 94 243 152 65 33 146 75 182 94 88 45 220 104 234 104 6 0 55 18
109 40 101 42 137 49 137 28 0 -18 95 -306 103 -315 4 -3 17 -1 30 6 12 6 36
13 52 15 17 2 34 4 39 5 13 2 -3 70 -36 146 -17 39 -41 100 -53 137 l-24 68
42 10 c23 6 80 21 127 35 120 35 253 64 360 80 19 3 87 14 150 25 63 10 140
22 170 25 30 4 91 11 135 16 44 6 163 12 265 14 l185 4 18 53 c11 29 20 60 22
68 7 27 65 249 80 308 l6 22 -168 -2 c-92 -1 -208 -5 -258 -9z"/>
<path d="M9993 11934 c4 -11 9 -46 12 -79 9 -94 47 -342 54 -354 4 -6 34 -16
67 -22 32 -6 106 -22 164 -36 58 -14 118 -27 134 -29 16 -2 46 -9 67 -14 21
-6 41 -10 46 -9 4 1 15 -1 23 -4 8 -3 67 -20 130 -37 63 -17 153 -44 200 -59
47 -16 126 -40 175 -55 50 -15 99 -31 110 -36 52 -24 150 -60 160 -60 7 0 18
-6 24 -14 7 -8 23 -17 36 -20 41 -10 215 -97 215 -108 0 -16 -59 -129 -83
-157 l-22 -27 -40 48 c-22 27 -54 58 -72 68 -17 11 -33 26 -36 33 -8 22 -169
124 -232 147 -92 34 -192 59 -280 70 -96 11 -364 5 -420 -10 -22 -6 -53 -13
-70 -16 -16 -3 -38 -10 -48 -16 -10 -5 -42 -16 -70 -25 -29 -8 -83 -30 -122
-48 -38 -18 -78 -35 -88 -38 -14 -5 -101 -61 -212 -137 -90 -61 -284 -218
-363 -294 -77 -74 -243 -267 -294 -342 -20 -29 -52 -73 -71 -96 -18 -24 -46
-65 -62 -92 -15 -28 -38 -59 -51 -71 -50 -47 -315 -473 -391 -629 -24 -50 -52
-107 -63 -126 -23 -42 -48 -99 -89 -203 -17 -43 -38 -88 -45 -100 -15 -22 -24
-48 -67 -187 -39 -129 -70 -222 -79 -239 -24 -44 -109 -325 -143 -471 -14 -58
-30 -127 -37 -155 -53 -229 -77 -373 -86 -525 -9 -166 -23 -320 -29 -331 -4
-5 -9 -202 -11 -437 -5 -450 -6 -472 -19 -567 -5 -33 -9 -63 -9 -67 -1 -3 -4
-10 -8 -14 -5 -4 -8 -28 -9 -53 0 -25 -4 -66 -8 -91 -5 -25 -21 -119 -36 -210
-15 -91 -33 -194 -42 -230 -8 -36 -16 -75 -18 -88 -4 -25 -44 -188 -53 -212
-3 -8 -7 -24 -9 -35 -2 -11 -15 -51 -29 -90 -14 -38 -30 -86 -35 -106 -5 -21
-22 -75 -38 -120 -16 -46 -36 -113 -46 -149 -9 -36 -21 -76 -26 -89 -16 -41
-96 -329 -103 -371 -1 -8 -5 -22 -8 -30 -12 -30 -53 -181 -59 -215 -1 -5 -6
-21 -11 -35 -34 -84 -64 -265 -74 -440 -3 -58 -8 -108 -10 -112 -11 -17 18
-242 41 -321 l26 -87 -31 -33 c-16 -17 -30 -37 -30 -43 0 -6 -17 -41 -37 -77
-80 -139 -115 -197 -119 -197 -8 0 -128 61 -159 81 -238 152 -419 276 -459
314 -6 6 -68 54 -137 107 -180 138 -509 439 -509 466 0 4 21 22 48 39 26 18
64 49 85 68 21 19 41 35 44 35 3 0 17 10 30 23 14 12 36 31 48 42 12 11 30 25
39 30 10 6 25 22 34 38 17 27 17 28 -23 67 -22 21 -46 39 -53 40 -6 0 -29 -17
-50 -37 -50 -50 -99 -91 -142 -121 -19 -13 -60 -46 -91 -73 l-57 -49 -34 43
c-72 90 -206 276 -253 353 -11 18 -41 64 -67 103 -26 39 -63 99 -81 133 -19
35 -59 106 -88 158 -56 97 -129 242 -129 254 0 5 -100 220 -134 286 -18 36
-61 169 -56 172 11 7 169 60 220 74 89 23 164 48 178 57 15 12 16 49 0 65 -7
7 -9 12 -5 12 4 0 1 14 -8 30 -9 17 -17 30 -20 30 -6 0 -106 -28 -140 -39 -16
-5 -70 -26 -120 -46 -49 -20 -104 -40 -121 -45 l-31 -7 -26 91 c-26 92 -34
124 -62 251 -40 183 -67 319 -81 410 -8 55 -19 123 -24 150 -5 28 -12 174 -16
325 -3 151 -7 297 -8 325 l-1 50 -120 32 c-143 39 -274 63 -281 51 -15 -24 0
-646 20 -798 2 -19 7 -64 11 -100 4 -36 13 -103 21 -150 9 -47 20 -112 25
-145 27 -170 74 -387 106 -495 15 -52 81 -237 142 -400 16 -41 51 -136 79
-212 28 -75 55 -145 61 -155 6 -10 44 -88 85 -173 81 -168 111 -224 139 -254
9 -11 17 -24 17 -29 0 -7 85 -134 100 -147 5 -5 13 -18 57 -90 15 -25 63 -94
108 -155 45 -60 98 -134 119 -164 21 -29 52 -69 69 -89 202 -225 334 -363 391
-407 20 -15 53 -44 74 -64 60 -58 165 -153 213 -193 24 -20 55 -46 69 -58 80
-71 261 -200 281 -200 5 0 9 -3 9 -8 0 -4 37 -29 83 -56 45 -27 93 -56 107
-65 14 -9 53 -30 87 -47 35 -17 68 -36 75 -41 7 -6 69 -39 138 -75 69 -35 134
-69 145 -76 29 -16 216 -102 222 -102 3 0 49 -22 102 -49 78 -39 151 -70 181
-76 3 -1 21 -8 40 -16 91 -40 183 -70 335 -111 57 -15 91 -25 163 -48 35 -10
80 -22 100 -25 20 -4 46 -10 57 -15 17 -7 126 -31 210 -45 11 -2 49 -9 85 -15
36 -7 74 -14 85 -15 11 -2 47 -8 80 -13 104 -17 156 -22 151 -14 -4 8 -9 35
-21 137 -3 28 -13 101 -22 163 l-17 112 -30 0 c-17 0 -60 7 -96 16 -36 8 -86
17 -111 19 -47 4 -129 23 -234 55 -51 15 -139 37 -221 55 -43 9 -171 44 -194
53 -14 5 -27 9 -30 9 -9 -1 -144 44 -177 59 -17 8 -35 14 -40 14 -17 0 -133
53 -133 62 0 4 -5 8 -10 8 -19 0 -237 109 -250 125 -7 8 -18 15 -24 15 -6 0
-17 4 -25 9 -11 7 -3 27 38 98 28 49 51 92 51 96 0 11 52 87 59 87 3 0 12 -12
19 -28 23 -53 121 -172 192 -234 44 -39 171 -129 194 -138 14 -5 42 -20 63
-33 142 -87 364 -138 498 -114 22 4 92 17 155 28 138 25 279 62 340 92 54 25
247 147 308 194 81 62 203 188 251 258 25 39 56 84 68 100 66 93 105 183 169
390 9 28 20 57 24 66 5 9 11 32 14 50 63 374 75 531 75 954 -1 284 6 575 15
630 2 17 7 66 11 110 9 99 36 232 65 310 12 33 23 67 24 75 1 9 5 20 8 25 3 6
22 51 41 100 52 134 84 201 141 295 28 47 56 92 61 101 127 211 310 412 567
623 74 61 198 183 233 231 17 22 61 71 99 110 38 38 90 99 115 135 25 36 53
74 63 84 10 11 18 24 18 29 0 10 26 6 75 -12 81 -28 416 -121 438 -121 9 0 25
-4 35 -10 16 -9 51 -19 187 -55 28 -7 106 -29 175 -50 117 -35 256 -73 290
-80 8 -2 38 -10 65 -18 103 -31 161 -47 195 -53 19 -4 47 -13 62 -21 15 -7 30
-13 33 -12 3 1 47 -10 98 -25 277 -78 426 -119 478 -131 9 -2 58 -18 110 -36
52 -17 114 -35 139 -40 25 -4 86 -19 135 -33 50 -15 115 -33 145 -41 30 -9 93
-27 140 -40 47 -14 125 -36 174 -50 102 -28 119 -38 55 -31 -39 5 -108 12
-299 31 -30 3 -93 10 -140 15 -158 17 -235 24 -250 23 -8 -1 -37 2 -65 7 -27
5 -95 12 -150 15 -55 4 -102 8 -105 10 -5 3 -103 15 -180 21 -78 6 -253 23
-300 28 -25 3 -67 8 -95 10 -134 13 -172 17 -200 21 -16 2 -61 7 -100 10 -60
5 -178 17 -290 30 -30 4 -54 6 -265 26 -63 6 -128 12 -145 14 -16 2 -57 6 -90
9 -118 12 -161 16 -238 26 -43 5 -81 9 -85 8 -7 -2 -208 18 -283 27 -33 4 -72
-13 -99 -45 -3 -3 -21 -17 -40 -30 -99 -70 -450 -401 -450 -424 1 -12 59 -51
136 -89 45 -23 59 -38 110 -119 31 -51 65 -102 74 -113 10 -11 19 -24 21 -30
2 -5 29 -48 60 -95 87 -132 132 -201 154 -236 11 -18 59 -92 108 -163 48 -72
87 -133 87 -136 0 -3 25 -40 55 -82 30 -43 76 -112 102 -153 26 -41 59 -91 75
-111 15 -20 28 -40 28 -43 0 -6 170 -268 231 -356 26 -37 121 -182 164 -249 6
-9 23 -36 39 -61 82 -128 101 -157 120 -180 20 -23 20 -23 1 -10 -11 8 -31 28
-45 45 -14 16 -32 37 -40 45 -8 9 -41 47 -73 85 -31 39 -63 75 -70 81 -6 6
-23 24 -36 40 -13 16 -40 47 -60 69 -20 22 -63 71 -96 109 -33 38 -69 78 -80
90 -11 11 -30 33 -41 48 -12 16 -46 55 -75 86 -30 32 -92 103 -139 157 -47 54
-124 141 -171 194 -47 53 -99 111 -115 130 -16 19 -63 73 -105 120 -41 47 -88
101 -105 120 -65 77 -128 147 -148 167 -24 24 -114 127 -136 156 -8 11 -63 69
-122 129 l-106 109 -28 -48 c-75 -126 -119 -214 -154 -305 -19 -49 -19 -50 0
-101 26 -67 25 -90 -6 -216 -15 -58 -28 -114 -29 -125 -2 -11 -10 -47 -18 -80
-8 -33 -22 -96 -32 -140 -9 -44 -23 -101 -30 -128 -15 -53 -12 -214 4 -230 7
-7 12 -2 15 14 3 13 12 53 20 89 9 36 18 80 21 97 7 41 25 122 77 338 39 167
60 225 78 225 21 0 58 -20 96 -51 23 -19 76 -61 119 -94 43 -33 85 -67 93 -75
8 -8 52 -44 97 -80 70 -56 180 -148 250 -209 11 -10 97 -80 190 -156 94 -76
172 -141 175 -145 3 -4 32 -28 65 -55 80 -63 142 -115 174 -143 14 -13 58 -49
96 -80 39 -31 75 -61 81 -67 6 -5 31 -26 54 -45 24 -19 51 -42 59 -50 9 -8 43
-37 76 -65 58 -48 215 -185 225 -195 3 -3 27 -24 55 -45 27 -22 58 -48 69 -57
24 -22 70 -38 83 -29 15 9 26 68 14 75 -13 8 -161 218 -194 276 -15 25 -37 65
-51 90 -13 25 -38 63 -56 85 -17 22 -67 94 -111 160 -44 66 -104 155 -134 198
-30 42 -55 80 -55 83 0 2 -5 10 -10 17 -28 33 -61 80 -117 167 -34 52 -71 109
-83 125 -26 38 -106 162 -155 240 -21 33 -46 72 -56 87 -11 15 -19 30 -19 33
0 4 -40 66 -89 139 -48 73 -90 137 -92 143 -2 5 -21 37 -43 69 -221 338 -221
339 -193 362 12 10 109 19 272 27 283 13 353 16 380 20 17 3 80 7 140 10 61 3
198 10 305 15 107 6 240 12 295 15 55 3 134 7 175 10 41 3 120 7 175 10 55 3
127 8 160 10 33 2 116 7 185 11 69 3 127 8 130 9 3 2 80 6 170 9 269 10 413
17 445 21 31 4 211 15 347 20 107 4 298 16 328 20 14 2 63 7 110 10 47 4 94 9
105 11 11 3 66 7 123 11 102 6 102 6 102 32 0 25 -7 28 -137 68 -76 23 -190
54 -253 68 -63 15 -128 31 -145 37 -16 5 -79 23 -140 40 -60 16 -150 43 -200
58 -102 33 -160 48 -201 54 -89 14 -393 104 -559 166 -27 10 -95 31 -150 45
-122 32 -166 46 -182 58 -7 5 -17 6 -22 3 -15 -10 -208 42 -616 164 -251 75
-252 75 -379 110 -43 11 -106 30 -140 41 -34 11 -83 27 -111 35 -97 31 -135
47 -135 57 0 6 31 72 68 146 37 75 76 156 87 181 10 25 34 79 53 120 19 41 41
95 48 120 7 25 31 106 53 180 23 74 50 176 60 225 11 50 31 133 44 185 14 52
27 122 30 155 3 33 10 83 15 110 6 28 13 85 16 128 3 43 8 81 10 86 14 21 21
235 20 581 l-1 385 -37 210 c-41 237 -58 311 -85 370 -38 80 -61 135 -61 143
0 5 -14 35 -30 68 -34 65 -33 83 5 144 13 21 33 57 45 81 11 24 28 54 38 67
l18 23 69 -36 c39 -20 106 -59 150 -86 44 -27 89 -55 100 -62 11 -6 22 -15 25
-18 3 -3 34 -26 70 -51 36 -25 86 -61 112 -80 80 -56 149 -111 273 -218 66
-56 131 -112 145 -124 14 -11 51 -43 83 -69 31 -27 120 -112 198 -189 l140
-140 -50 -37 c-59 -44 -261 -237 -261 -249 0 -15 56 -62 73 -62 24 0 65 27
112 75 74 74 184 164 200 164 17 0 242 -304 325 -438 25 -40 55 -87 67 -104
26 -39 170 -328 188 -378 7 -20 24 -61 38 -90 50 -108 66 -146 115 -279 28
-74 53 -143 57 -152 5 -13 2 -18 -10 -18 -9 0 -31 -6 -48 -14 -18 -7 -63 -21
-102 -31 -63 -15 -118 -33 -199 -64 -27 -11 -28 -12 -12 -36 9 -13 16 -30 16
-37 0 -7 9 -24 19 -37 19 -24 20 -25 77 -11 33 8 75 20 94 28 19 8 49 18 65
23 17 4 57 17 89 28 33 12 60 20 60 19 20 -42 31 -75 61 -188 91 -337 105
-408 134 -665 30 -272 31 -293 32 -568 l1 -255 82 -17 c44 -10 149 -35 232
-56 84 -22 155 -39 158 -39 4 0 5 64 3 143 -10 366 -16 524 -21 547 -2 14 -7
77 -10 141 -4 64 -11 141 -16 170 -6 29 -17 98 -25 153 -16 103 -39 215 -76
366 -11 47 -25 105 -30 130 -5 24 -14 49 -19 54 -6 6 -10 20 -10 33 0 12 -4
32 -9 45 -5 13 -17 48 -26 78 -9 30 -23 69 -30 85 -7 17 -32 89 -55 160 -23
72 -45 140 -50 152 -5 12 -21 57 -35 99 -14 42 -44 114 -65 160 -22 46 -40 86
-40 90 0 14 -132 269 -141 272 -5 2 -9 10 -9 19 0 16 -142 256 -172 289 -10
11 -18 24 -19 30 0 5 -16 29 -34 54 -19 25 -42 58 -51 74 -15 26 -87 127 -203
282 -74 98 -234 280 -290 328 -12 12 -33 32 -45 46 -51 59 -279 280 -332 321
-67 51 -101 79 -163 131 -63 53 -230 181 -267 206 -10 7 -50 35 -89 62 -38 28
-75 50 -81 50 -7 0 -14 4 -16 8 -3 8 -104 72 -114 72 -3 0 -36 18 -74 40 -68
40 -352 184 -420 213 -38 16 -144 65 -225 102 -61 29 -261 107 -330 129 -137
43 -436 121 -505 132 -19 3 -78 14 -130 25 -52 11 -113 21 -135 23 -22 1 -47
6 -55 9 -8 3 -62 8 -120 11 -106 6 -156 12 -173 23 -5 3 -7 -3 -4 -13z m717
-910 c252 -22 423 -94 576 -241 94 -91 170 -194 199 -273 9 -25 21 -54 26 -65
30 -66 83 -248 108 -374 56 -275 82 -716 58 -956 -5 -44 -10 -109 -12 -145 -3
-56 -10 -122 -31 -322 -14 -129 -58 -358 -82 -429 -11 -31 -22 -72 -25 -90 -9
-54 -110 -333 -130 -357 -5 -7 -20 -34 -32 -61 -28 -59 -133 -235 -189 -316
-23 -33 -57 -86 -74 -117 -90 -163 -359 -463 -578 -647 -39 -33 -163 -141
-190 -166 -12 -11 -36 -31 -53 -45 -36 -28 -181 -202 -181 -216 0 -6 -5 -15
-12 -22 -7 -7 -26 -37 -43 -66 -16 -30 -46 -81 -65 -113 -87 -142 -217 -450
-254 -604 -38 -157 -71 -343 -81 -464 -3 -33 -10 -94 -15 -135 -15 -112 -20
-225 -25 -550 -5 -256 -13 -393 -29 -477 -3 -11 -8 -43 -12 -70 -4 -26 -13
-65 -20 -87 -8 -21 -14 -52 -14 -67 0 -16 -9 -62 -20 -102 -11 -39 -29 -115
-40 -168 -21 -102 -44 -168 -91 -264 -51 -104 -314 -379 -408 -426 -14 -8 -42
-26 -62 -41 -38 -29 -188 -106 -266 -137 -92 -36 -185 -51 -284 -46 -220 10
-323 41 -476 140 -90 59 -252 208 -287 265 -38 61 -76 157 -91 227 -8 38 -21
100 -30 138 -18 76 -15 224 6 340 10 60 61 267 98 400 44 159 65 238 101 380
22 83 46 170 54 194 9 24 16 54 16 67 0 13 4 33 9 46 5 13 22 64 36 113 15 50
45 142 67 205 54 160 101 341 121 470 2 14 7 32 10 40 8 20 43 193 52 260 2
14 8 54 14 90 6 36 13 115 17 175 3 61 10 146 16 190 5 44 12 188 14 320 3
228 9 460 18 715 5 122 23 345 31 370 3 8 7 40 9 71 9 100 46 321 72 434 40
172 158 532 194 597 6 10 10 23 10 31 0 7 9 28 19 48 20 37 56 130 111 284 17
50 53 138 81 197 27 59 49 113 49 120 0 6 26 56 58 111 31 55 70 122 86 151
86 151 267 401 461 635 116 140 397 416 510 500 22 17 66 50 98 75 78 61 237
154 322 188 39 16 84 35 100 43 51 23 209 46 270 39 17 -2 64 -6 105 -10z"/>
<path d="M10480 10918 c-108 -10 -287 -69 -370 -122 -132 -84 -212 -142 -285
-207 -16 -15 -68 -60 -115 -100 -103 -89 -170 -157 -264 -269 -39 -47 -78 -94
-88 -105 -55 -65 -86 -111 -80 -116 7 -7 103 -38 362 -119 74 -24 159 -51 188
-61 28 -10 53 -18 55 -17 1 1 25 -6 52 -15 28 -8 138 -43 245 -77 107 -34 285
-90 395 -125 110 -35 223 -70 250 -78 28 -8 109 -34 180 -57 72 -23 135 -43
140 -44 6 -2 17 -6 25 -9 8 -3 44 -14 80 -25 36 -11 116 -36 178 -56 62 -20
124 -36 137 -36 24 0 25 2 25 73 0 39 -4 119 -10 177 -10 117 -17 194 -25 320
-9 126 -13 161 -23 208 -6 23 -8 42 -5 42 3 0 0 6 -6 14 -6 7 -13 33 -16 57
-2 24 -8 58 -13 74 -19 60 -102 259 -115 274 -7 9 -19 30 -27 46 -22 45 -185
201 -250 239 -31 19 -101 48 -156 66 -54 18 -106 36 -114 40 -9 4 -60 8 -115
9 -55 1 -109 3 -120 5 -11 2 -63 0 -115 -6z"/>
<path d="M9193 9901 c-15 -10 -201 -277 -247 -356 -23 -38 -55 -97 -70 -130
-15 -33 -34 -73 -41 -88 -14 -28 -14 -29 52 -90 133 -125 159 -148 215 -190
32 -23 58 -46 58 -51 0 -13 41 -47 69 -57 19 -8 35 -4 70 15 25 14 134 68 241
121 107 53 211 105 231 116 20 10 44 19 52 19 8 0 80 -68 159 -152 78 -83 196
-206 261 -271 l118 -120 43 6 c24 4 75 22 112 41 66 33 250 106 267 106 5 0
23 6 40 14 18 8 52 21 77 30 25 8 77 27 115 41 138 53 122 51 162 14 20 -19
81 -78 135 -131 54 -54 100 -98 103 -98 3 0 25 -21 50 -46 50 -52 44 -58 64
56 34 190 43 280 37 374 -3 55 -7 100 -9 101 -1 1 -22 7 -47 14 -25 8 -70 21
-100 31 -30 10 -71 21 -90 25 -19 4 -39 11 -45 15 -10 7 -74 30 -98 34 -7 1
-73 22 -147 45 -74 23 -200 62 -280 87 -80 25 -194 60 -255 79 -60 19 -114 35
-120 35 -5 0 -32 9 -60 20 -27 10 -88 31 -135 45 -160 48 -225 68 -245 76 -11
4 -51 17 -90 28 -38 11 -128 39 -200 61 -71 23 -188 59 -260 81 -71 22 -142
44 -156 48 -15 5 -31 6 -36 2z"/>
<path d="M8764 9178 c-4 -13 -22 -57 -41 -98 -67 -144 -81 -175 -88 -200 -4
-14 -17 -45 -27 -70 -51 -114 -74 -178 -67 -183 18 -14 155 -131 159 -136 3
-3 46 -40 95 -81 50 -41 109 -94 131 -117 44 -46 69 -52 112 -29 15 8 52 24
82 36 30 13 111 50 180 83 69 32 176 81 237 108 l113 49 32 -29 c64 -58 187
-162 338 -286 58 -48 133 -113 167 -146 34 -32 69 -59 77 -59 7 0 81 32 162
71 244 116 286 135 357 164 37 16 70 32 73 37 10 16 32 7 70 -29 22 -21 82
-76 133 -123 51 -47 128 -120 171 -162 42 -43 80 -78 83 -78 20 0 108 235 132
350 9 41 18 104 21 140 l6 65 -104 95 c-56 52 -119 109 -138 126 -19 17 -58
52 -86 77 -53 49 -76 56 -108 32 -10 -8 -42 -22 -70 -31 -28 -9 -55 -20 -60
-25 -6 -5 -17 -9 -27 -9 -9 0 -38 -9 -65 -19 -27 -11 -83 -31 -124 -46 -41
-15 -84 -31 -95 -35 -62 -27 -175 -63 -210 -67 -45 -4 -2 -41 -395 341 -80 78
-162 156 -182 175 l-37 34 -45 -22 c-25 -11 -49 -21 -52 -21 -4 0 -28 -15 -54
-34 -25 -18 -126 -72 -223 -120 l-177 -87 -82 68 c-46 37 -85 70 -88 73 -3 3
-50 46 -104 95 -54 50 -112 102 -129 118 -35 33 -44 34 -53 5z"/>
<path d="M8487 8533 c-19 -31 -78 -247 -113 -408 -9 -44 -24 -99 -32 -123
l-15 -43 44 -45 c24 -24 46 -44 49 -44 3 0 36 -28 72 -62 170 -161 253 -233
267 -231 9 0 77 27 151 58 74 31 191 79 260 106 69 27 134 54 145 59 57 25 64
23 123 -33 31 -30 75 -70 97 -88 22 -19 88 -81 148 -139 232 -225 292 -280
307 -280 8 0 27 6 42 14 14 8 43 19 65 26 21 7 52 18 68 25 17 7 50 20 75 30
25 9 57 23 72 31 14 8 32 14 40 14 7 0 36 12 63 25 28 14 57 25 66 25 8 0 19
4 25 8 5 5 57 28 116 52 l106 43 59 -64 c70 -77 185 -188 195 -189 6 0 106
146 133 195 60 108 135 255 135 265 0 13 -139 155 -272 277 -38 35 -68 66 -68
70 0 5 -12 16 -26 26 -24 18 -26 18 -89 -12 -36 -17 -68 -31 -71 -31 -3 0 -61
-23 -127 -51 -111 -47 -174 -75 -325 -146 l-53 -25 -77 69 c-42 37 -86 77 -98
88 -11 11 -58 54 -104 95 -130 117 -189 171 -248 228 -57 54 -81 63 -102 38
-6 -8 -28 -20 -48 -27 -20 -6 -57 -21 -82 -32 -25 -10 -58 -25 -75 -32 -16 -7
-62 -27 -102 -44 -39 -17 -74 -31 -77 -31 -3 0 -38 -15 -78 -34 -40 -18 -95
-44 -122 -56 l-48 -21 -87 83 c-90 87 -280 263 -343 317 -20 17 -39 28 -41 24z"/>
<path d="M8295 7773 c-3 -32 -10 -74 -15 -93 -5 -19 -12 -57 -15 -84 -3 -27
-11 -72 -16 -100 -6 -28 -13 -103 -16 -166 l-5 -116 63 -61 c35 -33 111 -100
168 -149 58 -49 116 -98 129 -111 18 -16 29 -20 45 -14 12 5 24 9 27 9 15 2
136 52 235 97 69 32 128 58 211 93 l72 30 19 -21 c17 -19 157 -156 459 -449
50 -48 96 -88 101 -88 6 0 16 7 23 14 6 8 35 22 63 32 29 9 57 20 62 24 6 4
19 10 30 13 26 7 184 65 210 76 11 5 54 20 95 33 210 69 199 67 225 38 14 -16
21 -17 39 -8 32 17 343 326 383 381 l36 48 -74 75 c-115 118 -143 144 -154
144 -5 0 -32 -9 -60 -19 -27 -11 -77 -29 -110 -41 -33 -12 -69 -26 -80 -31
-11 -4 -51 -18 -90 -30 -38 -12 -92 -32 -120 -44 -27 -13 -66 -28 -85 -35 -19
-7 -44 -16 -55 -21 -33 -15 -137 -49 -149 -49 -6 0 -63 52 -126 116 -230 233
-288 290 -369 362 -45 39 -86 72 -91 72 -9 0 -21 -5 -95 -35 -16 -7 -55 -21
-85 -30 -30 -10 -77 -28 -105 -40 -27 -13 -72 -31 -100 -40 -27 -10 -87 -35
-132 -56 -139 -64 -110 -76 -333 141 -107 105 -198 190 -201 190 -4 0 -10 -26
-14 -57z"/>
<path d="M8218 7054 c0 -16 -2 -173 -3 -349 l-2 -320 122 -122 c67 -68 126
-123 131 -123 10 0 148 52 199 75 154 69 336 136 354 130 9 -3 41 -28 72 -57
30 -29 75 -71 100 -92 47 -41 170 -156 256 -239 48 -46 54 -50 75 -39 13 7 52
21 88 31 178 52 247 75 266 88 11 7 34 39 49 71 35 70 85 147 122 188 15 17
46 53 68 80 97 119 156 179 231 236 49 36 74 65 74 82 0 9 -35 7 -44 -1 -4 -4
-33 -15 -64 -24 -95 -28 -400 -135 -537 -189 -11 -5 -31 -11 -44 -14 -25 -5
-21 -9 -265 229 -45 44 -126 122 -181 173 -97 91 -101 94 -140 89 -22 -2 -66
-16 -98 -31 -32 -14 -60 -26 -62 -26 -3 0 -27 -9 -53 -21 -26 -12 -56 -25 -67
-29 -69 -28 -127 -54 -177 -80 -31 -17 -65 -30 -76 -30 -11 0 -67 45 -129 103
-60 56 -125 116 -144 132 -18 17 -53 48 -76 69 l-43 38 -2 -28z"/>
<path d="M8199 6233 c0 -32 -5 -91 -15 -183 -4 -36 -8 -78 -9 -95 -1 -16 -5
-55 -9 -85 -3 -30 -11 -93 -16 -140 -5 -47 -12 -107 -15 -135 -3 -27 -10 -70
-15 -95 -6 -25 -11 -67 -13 -94 l-2 -50 165 -49 c91 -27 185 -52 210 -57 25
-5 119 -29 210 -55 91 -25 239 -66 330 -91 91 -25 228 -62 305 -84 77 -21 156
-42 176 -45 l36 -7 7 78 c6 80 20 167 38 239 5 22 11 47 12 55 4 23 26 101 40
145 8 22 22 65 31 95 10 30 37 96 60 145 41 85 75 164 75 170 0 7 -114 -26
-216 -63 l-112 -39 -43 40 c-148 136 -207 192 -317 300 l-123 119 -77 -27
c-42 -16 -133 -51 -202 -78 -69 -27 -141 -55 -160 -63 -19 -7 -53 -22 -75 -34
l-40 -20 -110 115 c-61 63 -114 115 -118 115 -4 0 -7 -12 -8 -27z"/>
<path d="M8070 5241 c-5 -10 -18 -56 -29 -102 -22 -92 -54 -212 -105 -389 -48
-165 -58 -212 -49 -221 5 -5 29 -13 53 -18 25 -5 61 -14 80 -20 19 -5 76 -19
125 -31 50 -12 99 -25 110 -29 24 -10 63 -21 220 -62 256 -66 300 -77 315 -83
8 -3 26 -7 40 -10 14 -2 68 -16 120 -30 90 -25 257 -70 380 -102 98 -25 140
-32 146 -23 3 5 4 71 3 146 -2 179 9 418 27 560 l5 42 -58 16 c-32 9 -89 26
-128 37 -38 11 -79 22 -90 24 -20 3 -42 9 -142 37 -29 9 -53 13 -53 10 0 -3
-6 -1 -12 4 -7 6 -38 16 -68 23 -30 6 -86 21 -125 32 -38 12 -77 22 -85 23 -8
1 -22 5 -30 8 -23 9 -139 38 -195 49 -27 6 -85 21 -127 34 -43 13 -103 31
-135 40 -101 27 -117 32 -151 42 -27 9 -34 8 -42 -7z"/>
<path d="M7856 4417 c-2 -6 -20 -59 -40 -117 -34 -102 -98 -342 -129 -485 -9
-38 -29 -115 -45 -170 -17 -55 -33 -120 -37 -145 -11 -63 -13 -290 -3 -318 4
-12 10 -37 12 -55 2 -17 7 -41 9 -52 3 -11 10 -41 16 -67 6 -26 29 -84 52
-129 33 -66 61 -101 140 -180 55 -55 102 -99 105 -99 3 0 18 -8 32 -18 15 -10
43 -24 62 -31 19 -8 49 -19 65 -26 17 -8 73 -23 125 -36 74 -17 112 -20 175
-16 99 7 241 53 342 110 41 23 100 56 131 72 140 73 326 259 396 395 49 94
113 301 122 394 3 34 10 77 17 96 6 19 12 42 13 50 1 8 9 44 18 80 9 36 19 79
21 95 8 65 18 235 13 235 -2 0 -42 11 -89 26 -46 14 -102 29 -124 34 -22 4
-89 22 -150 39 -60 17 -121 33 -135 35 -14 2 -38 8 -55 14 -16 5 -68 20 -115
32 -47 13 -123 33 -170 45 -47 13 -139 37 -205 55 -66 17 -149 39 -185 50 -36
10 -85 22 -110 25 -25 4 -49 11 -55 15 -5 4 -37 13 -70 20 -33 7 -64 16 -70
20 -20 15 -76 20 -79 7z"/>
<path d="M9025 10869 c-38 -5 -144 -19 -235 -30 -91 -11 -223 -34 -295 -50
-71 -16 -141 -31 -155 -34 -37 -6 -175 -49 -255 -80 -38 -15 -90 -34 -115 -42
-25 -8 -76 -29 -115 -47 -87 -39 -553 -272 -569 -284 -6 -5 -31 -21 -56 -34
-169 -94 -445 -297 -437 -322 2 -6 13 -16 24 -21 24 -12 107 -72 134 -97 10
-10 22 -18 25 -18 3 0 75 -52 159 -115 85 -63 162 -115 172 -114 10 0 47 22
83 49 107 80 367 234 541 320 90 44 169 80 177 80 7 0 31 9 54 21 46 23 153
59 266 90 42 11 82 25 90 31 7 6 15 8 18 5 3 -3 20 -1 39 4 18 5 53 12 77 15
156 19 201 23 270 23 70 1 78 3 89 24 7 12 17 27 24 32 6 6 29 33 50 60 43 55
60 74 132 153 48 52 51 58 86 200 33 130 43 181 35 182 -62 7 -262 6 -313 -1z"/>
<path d="M11897 9922 c19 -127 32 -315 35 -498 l3 -161 34 14 c50 21 282 142
311 163 14 9 30 19 35 21 32 13 145 82 145 89 0 5 -6 13 -14 17 -8 4 -45 36
-83 69 -37 34 -97 85 -133 113 -36 28 -74 59 -85 69 -26 21 -136 104 -157 117
-8 6 -35 24 -60 42 l-44 31 13 -86z"/>
<path d="M6678 9869 c-10 -5 -18 -16 -18 -23 0 -11 107 -177 217 -336 9 -14
37 -55 61 -93 24 -37 49 -73 55 -80 42 -43 134 -180 316 -467 13 -19 47 -73
77 -119 30 -46 54 -85 54 -88 0 -3 15 -23 33 -46 17 -23 37 -49 42 -58 6 -9
28 -42 50 -75 22 -32 49 -72 60 -90 11 -19 34 -57 52 -86 18 -29 73 -118 122
-198 50 -80 98 -160 107 -177 9 -18 20 -33 24 -33 4 0 13 23 20 50 11 44 10
53 -4 69 -9 10 -16 21 -16 24 0 4 -31 53 -69 109 -37 57 -81 123 -96 148 -15
25 -31 47 -34 50 -4 3 -29 41 -56 85 -27 44 -53 85 -57 90 -14 17 -111 168
-133 206 -11 19 -37 60 -58 90 -21 30 -93 137 -159 239 -67 102 -155 236 -197
298 -42 62 -79 119 -83 125 -87 144 -109 188 -67 137 11 -14 51 -57 87 -95 37
-39 96 -104 132 -145 64 -73 245 -274 285 -316 19 -20 116 -127 235 -259 30
-34 96 -106 146 -161 50 -54 126 -139 169 -187 43 -48 81 -84 86 -80 4 4 15
31 24 58 9 28 23 64 30 80 7 17 30 74 49 127 35 95 44 138 28 138 -4 0 -30 18
-57 40 -28 22 -54 44 -60 48 -5 4 -50 38 -100 75 -49 37 -105 79 -124 94 -19
16 -50 39 -69 52 -19 13 -70 52 -113 87 -44 35 -83 64 -87 64 -5 0 -17 8 -28
18 -52 47 -274 214 -441 332 -43 30 -85 60 -93 67 -87 69 -306 223 -316 223
-5 0 -17 -5 -26 -11z"/>
<path d="M6460 9663 c-58 -53 -119 -117 -136 -142 -18 -26 -60 -78 -95 -117
-98 -109 -115 -129 -135 -160 -10 -16 -46 -65 -79 -109 -78 -103 -163 -233
-207 -315 -20 -36 -45 -83 -58 -105 -99 -174 -190 -391 -255 -605 -14 -47 -30
-94 -35 -105 -5 -11 -23 -78 -40 -150 -17 -71 -35 -144 -40 -161 -14 -43 -30
-162 -37 -266 l-5 -87 33 5 c115 17 177 21 303 23 123 1 202 7 256 17 8 1 21
3 28 3 7 1 12 14 12 31 0 16 9 64 19 107 11 43 29 128 41 188 12 61 30 130 40
155 10 25 36 98 59 162 53 150 200 463 261 558 17 25 35 56 42 70 18 35 95
147 146 211 23 30 49 63 58 74 8 11 34 40 57 65 24 25 61 67 83 95 21 27 55
65 74 85 49 50 64 79 48 98 -7 8 -29 43 -48 78 -19 34 -48 82 -64 106 -53 77
-211 288 -216 288 -3 0 -53 -44 -110 -97z"/>
<path d="M12430 9404 c-80 -41 -192 -101 -250 -133 -58 -32 -129 -71 -158 -85
-33 -17 -57 -37 -65 -54 -6 -15 -17 -31 -24 -37 -9 -8 -9 -14 2 -29 13 -18 15
-18 43 3 17 12 33 21 36 21 3 0 52 26 109 58 56 32 109 61 117 65 8 4 52 27
98 52 46 25 85 45 87 45 8 0 -64 -65 -324 -290 -35 -30 -82 -72 -105 -93 -22
-21 -53 -48 -68 -60 -21 -16 -28 -31 -28 -56 0 -47 -18 -198 -37 -313 -9 -54
-14 -100 -11 -103 2 -3 67 74 144 171 76 97 147 185 158 197 10 12 29 38 41
57 13 19 49 64 82 100 32 36 86 102 120 145 269 345 272 349 266 375 -9 38
-11 40 -51 40 -26 -1 -80 -23 -182 -76z"/>
<path d="M12689 9263 c-14 -16 -61 -73 -104 -128 -44 -55 -85 -106 -92 -113
-7 -7 -13 -16 -13 -20 0 -4 -15 -23 -33 -42 -76 -82 -140 -172 -131 -185 5 -6
37 -50 71 -96 34 -46 66 -89 70 -94 4 -6 17 -26 27 -45 11 -19 22 -37 26 -40
9 -7 170 -338 170 -350 0 -5 5 -10 10 -10 6 0 10 -7 10 -15 0 -8 4 -23 10 -33
21 -38 68 -164 108 -287 43 -133 142 -548 142 -594 0 -14 10 -96 22 -182 l21
-157 36 -11 c20 -5 39 -10 43 -11 5 0 32 -9 60 -20 59 -23 392 -115 451 -126
l38 -6 -6 188 c-3 104 -7 203 -9 219 -2 17 -9 86 -15 155 -9 105 -39 282 -56
332 -2 7 -6 29 -9 49 -5 31 -18 88 -76 320 -14 52 -54 165 -112 309 -66 165
-94 225 -163 350 -32 58 -65 119 -73 135 -22 43 -113 180 -166 250 -25 33 -49
67 -53 75 -4 8 -16 24 -26 35 -10 11 -46 55 -79 98 -33 42 -64 77 -67 77 -4 0
-18 -12 -32 -27z"/>
<path d="M7680 7438 c-54 -6 -233 -22 -590 -54 -30 -2 -75 -6 -100 -9 -25 -2
-85 -7 -135 -10 -49 -4 -103 -9 -120 -11 -33 -4 -100 -10 -220 -19 -44 -4
-100 -8 -125 -11 -25 -2 -97 -8 -160 -14 -163 -15 -196 -18 -275 -29 -67 -9
-115 -13 -370 -26 -102 -6 -247 -20 -305 -29 -14 -2 -70 -7 -125 -10 -55 -4
-113 -9 -130 -11 -38 -6 -229 -24 -315 -30 -36 -2 -92 -6 -125 -9 -33 -3 -112
-11 -175 -16 -63 -6 -119 -15 -123 -19 -5 -5 -7 -30 -5 -57 l3 -48 85 -19 c47
-9 150 -33 230 -52 148 -35 195 -45 233 -50 12 -1 29 -5 37 -8 8 -3 51 -13 95
-22 117 -25 587 -140 755 -184 173 -47 272 -71 435 -106 39 -8 167 -40 285
-70 118 -30 287 -72 375 -94 248 -61 625 -158 675 -174 25 -8 68 -20 95 -27
28 -7 96 -25 151 -41 56 -16 104 -29 106 -29 2 0 3 21 3 48 l0 47 -210 53
c-276 68 -465 114 -490 118 -11 1 -22 3 -25 4 -3 1 -9 3 -15 4 -5 1 -17 5 -25
8 -8 3 -80 22 -160 42 -334 82 -606 148 -615 150 -64 13 -175 40 -193 47 -13
5 -32 9 -43 9 -10 0 -27 4 -37 9 -15 9 -88 26 -417 103 -49 11 -119 29 -155
39 -36 10 -76 20 -90 23 -47 10 -445 108 -575 142 -71 19 -137 34 -145 34 -8
0 -44 9 -80 20 -60 19 -62 20 -20 15 63 -7 273 -25 345 -30 33 -2 128 -11 210
-19 83 -8 193 -18 245 -22 52 -4 104 -8 115 -9 58 -6 167 -16 215 -20 30 -2
107 -9 170 -15 63 -6 144 -13 180 -16 36 -3 79 -7 95 -9 17 -2 77 -7 135 -10
57 -4 107 -8 111 -11 4 -2 45 -6 91 -9 45 -2 99 -7 118 -9 19 -2 73 -7 120
-11 47 -3 121 -10 165 -15 44 -5 123 -12 175 -15 95 -6 163 -13 210 -20 14 -2
63 -7 110 -10 47 -3 108 -8 135 -11 28 -2 77 -7 110 -10 33 -3 97 -8 141 -11
l82 -5 -1 139 c0 76 2 170 6 208 4 39 9 108 13 155 3 47 9 104 14 127 l7 43
-61 -3 c-33 -1 -90 -5 -126 -9z"/>
<path d="M5309 6658 c-5 -50 4 -352 11 -393 6 -27 17 -109 25 -181 19 -169 84
-498 127 -649 22 -80 89 -246 154 -383 24 -51 44 -96 44 -98 0 -9 76 -157 123
-243 26 -46 47 -89 47 -96 0 -7 8 -23 18 -36 10 -13 23 -35 30 -49 6 -14 18
-34 24 -44 7 -11 28 -45 47 -75 19 -31 38 -60 43 -66 4 -5 32 -44 61 -85 87
-123 173 -218 186 -205 4 6 41 55 82 110 70 97 217 285 229 295 3 3 18 21 34
42 l27 36 -50 79 c-27 43 -74 116 -105 163 -48 74 -222 413 -286 555 -12 28
-35 77 -50 110 -15 33 -31 71 -35 85 -4 14 -13 34 -20 45 -7 12 -23 57 -35
100 -12 44 -28 98 -35 120 -8 22 -16 59 -19 83 -3 23 -10 50 -15 60 -16 32
-41 112 -57 190 -18 86 -34 312 -23 327 4 6 5 22 2 36 -4 23 -15 29 -81 49
-43 12 -88 26 -102 30 -76 25 -269 79 -299 85 -86 16 -101 16 -102 3z"/>
<path d="M14647 6114 c-1 -1 -31 -5 -67 -8 -36 -4 -94 -11 -130 -16 -36 -6
-105 -14 -153 -19 -49 -5 -93 -13 -97 -17 -5 -5 -11 -25 -14 -44 -25 -186 -71
-443 -86 -475 -4 -11 -11 -33 -15 -50 -8 -41 -55 -193 -70 -230 -7 -16 -20
-50 -28 -75 -23 -69 -51 -136 -96 -233 -23 -49 -41 -90 -41 -93 0 -2 -24 -56
-54 -119 l-55 -115 -73 40 c-40 21 -102 54 -138 73 -36 18 -86 46 -112 60 -45
26 -87 35 -89 20 0 -5 -2 -19 -3 -32 -2 -13 -10 -29 -20 -36 -22 -17 -11 -41
27 -56 18 -7 34 -16 37 -20 3 -4 26 -17 52 -30 101 -51 143 -74 148 -80 3 -3
24 -18 47 -32 23 -14 44 -31 47 -36 10 -15 -59 -125 -179 -286 -222 -298 -242
-325 -277 -380 -7 -10 -18 -25 -25 -32 -7 -8 -29 -35 -50 -61 -106 -131 -394
-429 -500 -516 l-31 -26 -22 27 c-25 32 -101 120 -175 202 -62 71 -87 73 -128
14 l-30 -42 68 -83 c37 -46 76 -92 86 -103 10 -11 27 -30 39 -42 11 -13 20
-31 20 -41 0 -10 5 -23 11 -29 8 -8 1 -20 -26 -44 -21 -19 -48 -44 -61 -56
-33 -30 -212 -159 -288 -207 -33 -21 -112 -75 -175 -119 -63 -45 -152 -100
-199 -124 -46 -23 -89 -46 -96 -51 -6 -5 -56 -33 -111 -62 -55 -29 -105 -57
-112 -62 -6 -5 -49 -25 -94 -43 -83 -35 -98 -34 -99 3 0 7 -4 20 -9 30 -26 49
-87 213 -96 260 -6 30 -30 43 -48 25 -4 -4 -29 -14 -55 -23 -27 -9 -48 -23
-50 -33 -2 -9 8 -45 21 -79 14 -35 30 -88 37 -118 6 -30 18 -79 27 -108 8 -30
13 -55 11 -57 -9 -8 -99 -45 -110 -45 -8 0 -18 -4 -24 -9 -5 -4 -31 -14 -59
-21 -27 -8 -61 -20 -75 -27 -14 -7 -33 -13 -42 -13 -10 0 -57 -12 -105 -26
-141 -42 -230 -63 -383 -90 -47 -9 -94 -17 -105 -19 -11 -2 -65 -11 -120 -19
-55 -9 -111 -18 -125 -20 -50 -9 -327 -37 -394 -39 -49 -2 -71 -7 -77 -17 -16
-31 -71 -205 -84 -269 -8 -36 -18 -84 -24 -105 l-10 -39 242 7 c133 3 289 12
347 21 58 8 148 18 200 24 52 5 107 12 122 14 16 3 47 8 70 12 24 4 52 9 63
11 11 2 60 11 110 20 49 8 92 17 96 20 4 2 20 6 36 8 15 2 53 11 83 20 30 9
89 23 130 32 41 9 81 21 89 27 7 6 47 23 90 37 42 15 89 32 104 38 16 7 32 12
36 12 9 0 180 63 290 107 36 14 93 40 129 59 35 19 67 34 72 34 4 0 56 27 115
60 59 33 110 60 113 60 3 0 20 11 38 25 18 14 35 25 37 25 18 0 568 349 592
375 6 6 22 19 37 28 26 16 187 143 198 157 3 3 41 35 84 70 84 68 168 144 245
221 76 76 223 231 265 279 21 25 72 82 112 126 41 45 96 112 124 150 27 38 69
94 94 124 106 130 295 407 400 585 26 44 51 87 56 95 39 64 182 345 203 400 5
14 15 37 23 51 7 14 20 48 29 75 9 27 24 67 34 89 10 22 30 81 45 130 15 50
39 128 53 175 102 341 139 511 168 780 2 19 5 41 7 49 2 11 -35 24 -45 15z"/>
<path d="M13150 6003 c-91 -6 -175 -12 -188 -12 -12 -1 -24 -7 -26 -13 -23
-77 -50 -170 -72 -248 -36 -130 -82 -241 -104 -257 -11 -8 -16 -20 -13 -32 6
-22 -106 -252 -176 -361 -30 -47 -40 -65 -58 -100 -10 -19 -34 -61 -55 -92
-21 -31 -38 -60 -38 -63 0 -6 -105 -164 -153 -230 -123 -169 -249 -326 -269
-333 -21 -9 0 -50 102 -201 60 -90 120 -176 132 -191 13 -16 39 -51 58 -79 19
-28 38 -51 41 -51 17 0 282 283 365 390 32 41 62 81 68 87 30 34 94 126 209
301 9 15 24 42 32 60 8 17 20 32 25 32 6 0 10 7 10 15 0 8 5 15 10 15 6 0 10
4 10 9 0 5 17 36 38 68 43 67 132 246 187 378 9 22 24 56 34 75 20 38 70 169
94 240 23 71 51 145 58 150 8 6 39 111 50 165 4 22 17 85 28 140 11 55 23 113
25 128 l6 29 -133 -4 c-72 -1 -206 -8 -297 -15z"/>
<path d="M7686 5681 c-43 -55 -88 -110 -100 -123 -12 -13 -76 -90 -141 -173
-66 -82 -144 -180 -175 -216 -30 -36 -68 -83 -85 -104 -29 -38 -89 -111 -124
-150 -30 -34 -276 -339 -291 -361 -8 -11 -41 -50 -72 -85 -131 -147 -225 -262
-317 -384 -54 -71 -108 -139 -120 -149 -27 -25 -27 -52 2 -68 52 -29 119 2
377 173 80 53 161 104 180 114 19 9 61 35 92 56 32 22 62 39 67 39 5 0 11 4
13 8 2 4 26 21 53 37 28 15 52 31 55 34 3 4 64 44 135 90 72 46 141 91 155
100 14 9 42 25 63 36 28 15 37 25 35 41 -2 12 2 27 8 35 6 8 14 22 17 31 7 18
2 16 -311 -182 -100 -63 -199 -125 -220 -137 -20 -12 -44 -27 -52 -33 -9 -6
-43 -28 -77 -48 -34 -20 -132 -82 -217 -137 -86 -55 -171 -108 -188 -119 -30
-16 -29 -14 12 25 25 24 72 67 104 94 113 96 130 110 170 146 23 20 54 47 70
60 16 13 44 39 62 57 19 17 37 32 41 32 3 0 15 10 27 23 12 12 41 38 65 57 44
35 169 142 287 246 34 30 77 67 95 82 39 31 63 51 171 145 73 64 79 73 97 135
11 37 26 105 35 152 8 47 25 135 37 195 31 164 54 325 47 325 -3 0 -39 -45
-82 -99z"/>
<path d="M6940 4098 c-165 -90 -452 -268 -465 -287 -9 -16 215 -217 380 -341
55 -41 105 -78 110 -83 10 -8 41 -29 133 -93 29 -20 54 -35 56 -33 3 2 7 68
10 146 5 133 35 323 57 366 6 9 8 17 5 17 -3 0 4 25 15 57 10 31 19 59 19 63
0 4 -29 29 -65 56 -36 27 -89 70 -118 97 -75 69 -75 69 -137 35z"/>
<path d="M11566 3870 c-31 -22 -60 -40 -63 -40 -3 0 -21 -11 -39 -25 -18 -14
-37 -25 -42 -25 -5 0 -15 -7 -22 -15 -25 -30 -408 -234 -575 -307 -38 -17 -99
-43 -133 -59 -35 -16 -67 -27 -72 -24 -4 3 -18 -4 -32 -14 -42 -33 -455 -118
-607 -125 -25 -1 -56 -7 -68 -14 -12 -7 -33 -12 -46 -12 -34 0 -39 -9 -80
-135 -89 -271 -157 -489 -157 -502 0 -10 13 -12 56 -8 31 3 73 9 93 15 20 5
65 12 101 15 36 3 76 8 90 12 14 3 34 7 45 9 117 19 327 63 350 73 11 5 34 12
50 16 44 8 284 79 315 92 8 3 20 7 25 8 6 2 37 13 70 25 91 35 99 37 110 40
40 9 113 41 298 129 82 39 151 71 153 71 2 0 30 17 61 37 32 21 67 43 78 49
82 44 124 69 152 90 17 13 34 24 37 24 9 0 161 105 245 169 40 31 86 65 102
77 l29 21 -143 119 c-78 65 -144 121 -147 124 -33 34 -159 130 -171 130 -3 0
-31 -18 -63 -40z"/>
<path d="M9408 2508 c-48 -47 -61 -74 -78 -163 -7 -33 -19 -78 -27 -100 -15
-41 -55 -185 -78 -285 -15 -63 -72 -230 -81 -239 -7 -6 6 292 20 484 3 37 3
71 0 76 -2 5 -55 -17 -115 -47 l-111 -56 7 -36 c4 -20 9 -50 11 -67 2 -16 6
-37 9 -45 2 -8 9 -55 15 -105 6 -49 22 -153 37 -230 22 -118 30 -146 54 -175
25 -30 32 -33 55 -24 26 9 51 57 110 214 47 122 57 155 80 265 14 61 26 117
29 125 2 8 8 31 13 50 5 19 26 90 46 158 46 156 66 242 56 242 -4 0 -27 -19
-52 -42z"/>
<path d="M5986 2252 c-217 -347 -352 -561 -378 -593 -15 -20 -28 -39 -28 -41
0 -3 22 -19 49 -36 l50 -31 25 42 c101 172 399 632 409 631 19 -2 518 -317
524 -330 2 -7 -77 -139 -176 -295 -140 -222 -183 -283 -198 -281 -10 2 -43 23
-74 47 l-56 43 -17 -52 -16 -51 32 -28 c18 -15 61 -42 95 -59 99 -49 89 -58
324 316 111 176 213 336 227 354 13 18 22 34 21 36 -2 1 -22 13 -44 26 -57 34
-603 378 -645 406 -19 13 -37 24 -40 24 -3 0 -41 -58 -84 -128z"/>
<path d="M6175 2076 c-4 -36 -5 -72 -2 -79 4 -12 84 -33 92 -25 2 2 6 35 10
74 l7 72 -33 7 c-19 3 -41 9 -51 11 -14 4 -17 -6 -23 -60z"/>
<path d="M6006 2030 c-14 -22 -26 -41 -26 -43 0 -2 45 -32 100 -67 55 -34 100
-64 100 -66 0 -3 -119 -194 -126 -203 -5 -6 -74 40 -74 50 0 6 22 44 49 85
l50 75 -40 24 c-21 14 -40 25 -43 25 -2 0 -43 -63 -91 -140 -48 -77 -91 -143
-96 -146 -17 -10 -9 -21 31 -48 l40 -26 17 28 c9 15 18 29 19 31 2 2 59 -32
127 -75 88 -55 123 -83 120 -94 -3 -10 10 -23 35 -38 l39 -22 53 88 c29 48 68
108 86 134 l34 48 -40 26 c-21 14 -43 23 -48 20 -5 -3 -29 -37 -52 -76 -23
-38 -47 -70 -52 -70 -12 0 -78 39 -78 46 0 3 113 184 126 203 3 3 93 -52 189
-115 23 -15 25 -14 51 26 32 48 35 42 -52 93 l-47 29 61 34 c34 19 63 38 66
42 2 4 -11 24 -29 45 l-33 38 -78 -50 -78 -50 -35 21 c-20 12 -79 50 -131 83
-52 34 -100 64 -106 68 -7 4 -22 -10 -38 -33z"/>
<path d="M12120 1919 c-58 -27 -109 -50 -115 -52 -6 -2 0 -24 12 -50 l22 -46
68 33 c55 28 69 31 71 19 5 -20 -18 -102 -30 -109 -13 -8 -135 62 -194 112
l-51 44 -29 -22 c-48 -36 -50 -38 -35 -47 9 -6 -4 -16 -44 -35 -32 -14 -59
-26 -61 -26 -2 0 -4 12 -4 26 0 27 2 27 -80 -1 -34 -12 -35 -14 -37 -66 -3
-65 -25 -136 -65 -208 -16 -29 -28 -54 -26 -55 2 -1 22 -12 45 -24 l42 -23 32
63 c18 35 40 88 49 118 16 53 19 56 81 86 35 18 65 29 66 25 2 -3 -1 -26 -5
-51 -6 -31 -13 -44 -23 -42 -66 17 -74 15 -91 -21 l-17 -35 45 -12 c47 -14 49
-16 34 -54 -9 -25 -10 -25 -51 -11 -55 20 -55 20 -68 -16 -15 -44 -15 -43 24
-58 19 -7 35 -17 35 -23 0 -6 -22 -42 -49 -78 l-49 -68 46 -32 c41 -29 47 -30
57 -16 17 23 21 21 38 -22 l15 -38 149 73 c81 40 154 72 161 73 18 0 92 -162
80 -176 -5 -7 -35 -22 -68 -34 l-60 -22 32 -38 c18 -21 39 -39 46 -39 7 -1 42
13 78 31 67 32 104 67 104 97 0 9 -23 65 -50 125 -28 61 -50 111 -50 112 0 1
67 32 149 69 l150 68 -13 26 c-25 49 -29 71 -12 71 13 0 16 12 16 59 l0 58
-116 6 c-64 3 -118 8 -121 11 -3 3 9 60 26 126 17 67 31 126 31 131 0 10 -54
39 -72 38 -7 0 -60 -23 -118 -50z m-25 -295 c30 -14 55 -27 55 -30 0 -4 -189
-96 -237 -114 -21 -9 -22 -8 -8 29 7 20 18 64 24 97 7 32 14 69 17 82 l5 23
45 -31 c24 -17 69 -43 99 -56z m205 -63 c25 -6 64 -11 87 -11 23 0 44 -4 47
-9 6 -10 -44 -35 -418 -210 -131 -62 -240 -110 -243 -108 -2 3 10 28 27 57 17
28 37 68 46 88 l15 37 17 -23 18 -23 154 74 c85 41 163 77 174 81 11 4 16 12
12 21 -3 8 -9 22 -13 31 -5 13 -2 15 13 11 10 -4 39 -11 64 -16z"/>
<path d="M7155 1755 c-8 -19 -15 -36 -15 -39 0 -4 -226 -535 -250 -587 l-12
-26 -101 42 c-56 24 -103 47 -104 52 -3 9 166 414 201 481 l15 30 -49 21 c-27
12 -52 21 -57 21 -4 0 -50 -100 -102 -223 -52 -122 -118 -274 -146 -338 l-52
-117 44 -21 c58 -28 69 -27 82 9 l10 30 43 -17 c24 -10 148 -63 276 -117 250
-107 235 -96 216 -156 -4 -11 10 -22 47 -38 29 -12 56 -19 60 -14 4 4 12 24
18 44 9 27 224 531 267 624 2 5 -19 20 -48 32 -61 25 -68 26 -68 11 0 -14
-198 -481 -209 -492 -5 -5 -215 74 -228 86 -3 4 248 589 276 645 12 23 20 42
17 42 -2 0 -29 11 -60 25 l-57 25 -14 -35z"/>
<path d="M11178 1583 c-28 -4 -28 -4 -28 -87 l0 -83 -37 -11 c-21 -6 -56 -15
-79 -21 l-41 -11 47 -157 c26 -87 46 -160 44 -162 -10 -12 -177 136 -168 150
2 4 22 10 44 14 22 4 40 11 40 16 0 23 -23 99 -30 99 -4 0 -27 -7 -50 -15 -23
-8 -44 -15 -46 -15 -6 0 -44 131 -44 150 0 28 -12 31 -67 13 l-50 -16 28 -86
c31 -97 32 -94 -49 -112 -29 -7 -55 -15 -57 -19 -5 -8 17 -86 27 -95 4 -4 28
0 54 9 26 9 51 16 56 16 21 0 1 -230 -27 -310 -13 -37 -13 -38 30 -80 l43 -42
12 52 c7 29 15 87 19 129 l6 76 23 -85 c56 -213 101 -365 109 -364 4 1 29 7
55 14 l46 12 -14 42 c-8 22 -39 124 -69 226 -29 102 -57 194 -61 205 -4 11 16
-4 45 -32 56 -57 71 -64 71 -34 0 11 5 32 11 48 8 22 12 25 19 13 7 -13 81
-268 110 -377 12 -48 12 -48 75 -31 41 11 44 14 42 41 l-2 30 130 37 130 38 9
-24 c11 -28 16 -28 76 -10 29 9 44 19 41 27 -2 8 -23 77 -46 154 -23 77 -71
241 -106 365 -35 124 -64 226 -65 228 -1 2 -47 -10 -102 -27 -54 -17 -105 -31
-111 -31 -9 0 -10 18 -5 70 l7 70 -34 -1 c-19 -1 -46 -4 -61 -6z m256 -304
c15 -50 26 -92 24 -94 -9 -6 -269 -78 -272 -74 -2 2 -15 45 -29 96 l-24 91
116 35 c64 19 125 36 137 36 17 1 24 -13 48 -90z m86 -300 c16 -56 29 -104 27
-105 -6 -5 -246 -74 -259 -74 -10 0 -23 31 -43 100 -15 56 -25 104 -21 107 7
8 259 82 264 78 1 -1 16 -49 32 -106z"/>
<path d="M7713 1483 c-22 -95 -20 -94 -90 -78 -30 7 -32 5 -42 -31 -16 -58
-15 -62 30 -69 47 -8 56 -23 41 -73 -6 -20 -16 -56 -22 -79 l-11 -43 -59 0
c-50 0 -60 -3 -60 -17 0 -10 -3 -35 -6 -55 l-7 -38 52 0 c28 0 51 -3 51 -7 0
-5 -13 -57 -29 -118 -30 -120 -28 -117 -99 -101 l-33 8 3 -53 3 -53 50 -13
c70 -18 101 -16 123 7 10 11 32 76 51 147 18 71 37 145 42 166 8 28 15 37 32
37 33 0 43 11 54 58 l11 42 -30 0 c-29 0 -30 2 -24 32 3 18 11 49 17 71 10 38
11 38 49 32 38 -6 39 -6 49 32 15 54 14 63 -11 63 -50 0 -53 11 -30 102 12 45
22 86 22 89 0 4 -13 9 -29 12 -16 3 -40 9 -53 12 -24 6 -25 3 -45 -82z"/>
<path d="M7968 1368 c-15 -61 -26 -113 -25 -113 9 -7 421 -105 424 -102 2 3
17 53 32 112 19 71 24 108 17 110 -6 2 -94 24 -196 49 -102 25 -194 48 -205
51 -18 5 -23 -5 -47 -107z m231 -23 c52 -14 96 -27 99 -29 2 -3 1 -19 -3 -36
-5 -22 -11 -29 -23 -26 -10 3 -57 15 -107 27 -49 12 -93 25 -97 28 -13 12 4
61 21 61 9 0 58 -11 110 -25z"/>
<path d="M10405 1348 c-22 -11 -41 -22 -43 -23 -2 -2 13 -36 34 -76 44 -87
116 -197 171 -258 l39 -44 38 52 37 53 -54 57 c-59 62 -118 148 -149 217 -10
24 -22 44 -26 44 -4 -1 -25 -10 -47 -22z"/>
<path d="M12321 1320 c-18 -23 -31 -43 -30 -44 2 -2 40 -17 84 -33 69 -27 112
-38 212 -59 19 -3 23 2 32 47 6 27 11 54 11 58 0 5 -30 12 -67 16 -59 6 -142
27 -194 49 -10 5 -25 -6 -48 -34z"/>
<path d="M8877 1128 c-32 -356 -49 -533 -52 -536 -4 -4 -219 18 -224 24 -5 4
37 496 45 530 5 19 0 22 -51 28 -31 3 -61 4 -66 1 -5 -4 -9 -29 -9 -57 0 -28
-12 -182 -27 -342 -14 -160 -26 -302 -27 -316 -1 -24 2 -25 57 -28 54 -3 57
-2 57 20 0 48 1 48 235 27 121 -11 254 -23 295 -27 l75 -7 -2 -38 c-2 -37 -2
-37 37 -39 90 -4 82 -9 86 57 10 170 52 639 60 658 7 20 -3 24 -73 30 l-53 4
0 -44 c0 -52 -40 -506 -45 -511 -5 -5 -237 16 -242 21 -5 5 55 680 63 712 6
26 -14 35 -81 35 l-41 0 -17 -202z"/>
<path d="M9862 1323 c-27 -4 -31 -8 -27 -26 12 -55 25 -160 20 -165 -3 -3 -33
-8 -66 -10 l-61 -5 4 -49 c3 -26 7 -50 9 -52 2 -2 29 0 58 5 30 4 57 6 60 4 8
-8 -47 -192 -79 -261 l-29 -64 32 -51 c29 -47 32 -49 44 -33 15 21 63 166 63
191 0 72 27 -108 55 -373 l7 -60 31 3 c76 9 80 11 73 46 -3 18 -17 121 -30
229 -14 108 -28 209 -32 225 -5 20 5 11 37 -36 45 -66 69 -85 69 -56 0 9 7 30
16 47 16 30 16 31 -29 77 -64 67 -102 120 -91 131 5 5 27 10 49 12 l40 3 -3
50 c-2 28 -5 51 -6 52 0 1 -23 -3 -50 -8 -28 -5 -53 -6 -58 -1 -4 4 -11 47
-14 95 -8 97 -1 91 -92 80z"/>
<path d="M10166 1260 c-8 -83 -37 -183 -73 -253 -13 -27 -23 -50 -21 -51 2 -2
24 -17 49 -34 l47 -32 20 44 c12 24 30 70 41 103 21 63 66 271 60 278 -2 1
-29 6 -60 10 l-56 7 -7 -72z"/>
<path d="M7830 1133 c-14 -54 -25 -102 -25 -107 0 -6 48 -21 107 -36 59 -14
110 -29 113 -32 10 -10 -5 -48 -18 -48 -7 0 -66 14 -131 31 -65 16 -119 29
-121 27 -1 -2 -7 -22 -13 -46 -7 -32 -7 -44 1 -47 7 -2 46 -11 87 -20 41 -10
79 -21 83 -25 20 -18 -118 -77 -206 -87 -29 -4 -46 -10 -43 -17 3 -6 10 -30
17 -53 6 -24 14 -43 18 -43 3 0 29 6 56 14 72 19 144 52 188 87 20 16 37 26
37 22 0 -4 -11 -50 -25 -101 -14 -51 -25 -97 -25 -101 0 -6 79 -31 100 -31 6
0 10 12 10 26 0 14 6 49 14 77 8 29 17 66 21 82 7 30 7 30 36 -27 16 -32 59
-90 96 -129 l67 -71 39 41 38 42 -76 71 c-68 63 -113 123 -103 134 3 2 45 -7
94 -21 49 -14 94 -25 100 -25 13 0 37 82 26 91 -4 3 -43 13 -87 23 -44 10
-104 25 -133 33 -47 13 -52 17 -46 36 3 12 8 24 10 26 2 2 59 -10 126 -27 68
-17 124 -29 126 -27 6 5 54 207 50 209 -7 6 -269 68 -272 65 -2 -2 -13 -46
-26 -96 -20 -85 -24 -93 -46 -93 -30 0 -30 11 -4 110 11 41 20 80 20 86 0 8
-225 74 -253 74 -2 0 -14 -44 -27 -97z m176 -47 c-4 -16 -7 -31 -9 -32 -1 -1
-23 2 -49 7 -46 10 -46 10 -37 42 5 18 9 32 9 33 0 1 21 -3 46 -9 44 -10 46
-12 40 -41z m282 -41 c49 -15 52 -17 46 -43 -4 -15 -8 -29 -10 -31 -2 -2 -26
2 -53 9 -38 9 -51 17 -51 30 0 17 9 50 14 50 1 0 26 -7 54 -15z"/>
<path d="M11925 1148 c-2 -7 -11 -36 -19 -63 -9 -28 -33 -80 -54 -116 l-39
-65 49 -26 48 -26 36 65 c35 61 84 196 84 228 0 19 -99 21 -105 3z"/>
<path d="M10286 979 c-9 -85 -28 -196 -57 -320 -21 -92 -27 -99 -87 -99 -17 0
-22 -4 -18 -17 2 -10 10 -37 17 -60 7 -24 14 -43 16 -43 14 0 283 74 342 95
41 14 78 25 83 25 4 0 17 -18 28 -40 l21 -41 47 32 c26 18 49 34 51 35 9 8
-192 324 -207 324 -10 0 -82 -49 -82 -56 0 -3 23 -38 50 -79 45 -66 48 -75 33
-83 -27 -14 -184 -54 -189 -49 -3 3 4 40 15 83 19 76 72 347 68 351 -1 1 -30
5 -63 8 l-61 7 -7 -73z"/>
</g>
</svg>
