<?xml version="1.0" standalone="no"?>
<!DOCTYPE svg PUBLIC "-//W3C//DTD SVG 20010904//EN"
 "http://www.w3.org/TR/2001/REC-SVG-20010904/DTD/svg10.dtd">
<svg version="1.0" xmlns="http://www.w3.org/2000/svg"
 width="2000.000000pt" height="1414.000000pt" viewBox="0 0 2000.000000 1414.000000"
 preserveAspectRatio="xMidYMid meet">

<g transform="translate(0.000000,1414.000000) scale(0.100000,-0.100000)"
fill="#000000" stroke="none">
<path d="M10432 13057 c-13 -15 15 -50 78 -98 25 -18 79 -63 120 -99 221 -190
299 -263 325 -302 37 -55 91 -125 235 -302 173 -213 291 -365 329 -421 19 -27
43 -59 53 -69 10 -11 18 -23 18 -27 0 -3 21 -33 46 -65 25 -33 65 -98 89 -147
24 -48 55 -102 68 -120 31 -41 80 -137 70 -137 -5 0 -29 7 -55 14 -40 13 -48
13 -58 1 -9 -11 -7 -22 10 -50 12 -20 27 -41 34 -48 7 -6 31 -55 55 -107 23
-52 50 -113 61 -135 47 -102 70 -154 86 -198 9 -26 21 -50 25 -53 5 -3 9 -15
9 -27 0 -12 8 -36 19 -52 10 -17 24 -48 30 -70 22 -70 55 -148 94 -224 21 -41
47 -100 57 -130 19 -55 19 -56 57 -54 21 0 79 -5 128 -13 250 -39 285 -45 300
-50 8 -3 15 -4 15 -1 0 3 -26 45 -58 94 -232 350 -450 698 -521 828 -12 22
-31 56 -43 75 -11 19 -31 54 -44 78 -26 50 -185 305 -194 312 -8 7 -49 78 -98
170 -21 41 -49 92 -61 113 -11 21 -21 42 -21 48 0 9 -74 105 -91 119 -4 3 -22
26 -42 51 -19 26 -44 57 -55 70 -45 52 -363 476 -378 504 -9 17 -67 67 -213
183 -19 15 -41 34 -50 43 -9 8 -59 47 -112 86 -53 39 -125 95 -160 125 -99 83
-141 105 -157 85z"/>
<path d="M9785 12733 c-21 -6 -35 -21 -35 -39 0 -5 26 -41 58 -80 32 -38 80
-98 107 -134 27 -36 53 -69 57 -75 92 -119 258 -370 258 -389 0 -2 26 -59 59
-127 32 -68 62 -135 66 -149 4 -13 41 -96 82 -185 41 -88 81 -180 89 -205 8
-25 19 -54 24 -65 25 -57 102 -315 125 -420 14 -66 41 -176 60 -245 33 -121
56 -225 75 -340 5 -30 16 -93 25 -140 9 -47 18 -103 21 -125 2 -22 10 -69 16
-105 6 -36 11 -72 12 -80 7 -50 17 -60 58 -60 25 0 51 8 71 23 41 29 50 34
137 82 40 22 83 49 97 60 23 19 24 23 12 50 -7 17 -18 37 -25 45 -6 8 -16 40
-22 70 -13 72 -17 86 -48 205 -38 145 -45 177 -50 209 -2 16 -12 57 -23 90
-11 34 -34 131 -51 216 -35 177 -48 217 -69 225 -21 8 -89 -44 -137 -105 -22
-29 -44 -52 -49 -52 -9 1 -42 98 -49 142 -2 14 -13 58 -25 99 -11 41 -18 78
-15 82 3 5 -11 36 -30 69 -20 34 -36 63 -36 64 0 2 -24 55 -54 117 -29 63 -73
159 -96 214 -23 55 -77 173 -121 261 -43 89 -81 175 -85 190 -12 47 -51 127
-76 156 -13 14 -34 41 -48 59 -14 17 -32 40 -41 49 -9 10 -21 25 -25 33 -5 9
-49 59 -98 112 -50 53 -107 121 -128 151 -22 30 -42 53 -46 53 -4 -1 -16 -4
-27 -6z"/>
<path d="M8702 12448 c-13 -35 -27 -72 -32 -83 -5 -11 -23 -56 -41 -100 -17
-44 -42 -102 -55 -130 -12 -27 -30 -68 -39 -90 -10 -22 -25 -58 -35 -80 -9
-22 -25 -58 -35 -80 -9 -22 -30 -67 -45 -100 -16 -33 -52 -109 -80 -170 -29
-60 -60 -126 -70 -145 -10 -19 -28 -62 -41 -95 -12 -33 -30 -79 -40 -102 -11
-23 -19 -49 -19 -57 0 -15 -35 -59 -154 -190 -39 -43 -82 -92 -96 -109 -25
-30 -101 -112 -232 -251 -36 -39 -76 -83 -88 -99 -12 -15 -41 -47 -63 -71 -23
-24 -71 -77 -107 -117 -88 -99 -118 -129 -127 -129 -5 0 -26 9 -47 21 -21 11
-48 19 -61 17 -12 -1 -30 4 -39 12 -21 17 -49 3 -55 -26 -6 -32 -78 -149 -253
-412 -92 -139 -168 -255 -168 -258 0 -3 -18 -29 -40 -59 -26 -35 -50 -57 -68
-61 -15 -4 -36 -16 -47 -28 -25 -26 -110 -86 -122 -86 -5 0 -18 -8 -29 -19
-11 -10 -31 -24 -45 -31 -13 -7 -47 -30 -75 -51 -28 -22 -54 -39 -58 -39 -4 0
-42 -25 -85 -55 -43 -30 -83 -55 -88 -55 -6 0 -15 18 -22 41 -16 53 -91 209
-136 284 -36 61 -131 185 -200 263 -48 55 -163 141 -225 169 -25 11 -76 35
-115 52 -109 49 -245 50 -245 2 0 -24 13 -28 110 -36 75 -6 190 -50 207 -79 5
-7 35 -32 68 -57 33 -24 87 -71 121 -105 60 -61 206 -244 244 -306 32 -53 89
-176 96 -205 1 -7 10 -27 19 -45 9 -18 21 -44 25 -58 5 -14 22 -63 40 -110 17
-47 33 -107 36 -135 3 -27 11 -75 19 -105 23 -90 34 -243 29 -442 -4 -193 -13
-262 -41 -305 -15 -22 -21 -24 -62 -18 -65 9 -111 27 -103 39 3 6 7 16 7 21 1
6 5 60 10 120 5 61 8 114 7 118 -2 5 -4 120 -7 255 -3 214 -7 257 -25 322 -12
41 -27 89 -35 105 -7 17 -19 46 -26 65 -23 57 -131 265 -140 268 -5 2 -9 8 -9
14 0 5 -21 35 -46 66 -25 31 -58 72 -72 91 -88 111 -147 173 -205 215 -77 56
-92 66 -100 66 -4 0 -23 11 -41 25 -18 14 -36 25 -40 25 -4 0 -14 6 -22 14 -8
8 -49 22 -91 32 l-77 17 -18 -23 c-23 -28 -13 -41 33 -42 54 -2 222 -87 237
-120 2 -4 38 -35 80 -69 78 -62 159 -152 259 -287 62 -85 126 -182 121 -187
-1 -1 -52 -5 -113 -8 -124 -7 -313 -24 -365 -33 -19 -3 -51 -8 -70 -10 -19 -2
-53 -6 -75 -9 -22 -3 -65 -8 -96 -11 l-56 -6 -8 38 c-5 22 -10 46 -12 54 -28
128 -24 527 8 705 15 87 76 361 95 425 39 131 192 482 234 535 20 26 21 54 2
64 -16 9 -25 5 -46 -16 -15 -14 -29 -38 -33 -52 -3 -14 -11 -33 -18 -41 -7 -8
-16 -26 -20 -40 -4 -13 -23 -58 -42 -100 -33 -71 -42 -91 -73 -165 -61 -147
-147 -477 -184 -710 -18 -107 -33 -344 -31 -465 2 -133 25 -320 43 -343 4 -7
15 -32 22 -57 7 -25 20 -52 27 -61 7 -8 13 -20 13 -24 0 -17 118 -250 137
-270 10 -11 36 -42 56 -70 21 -27 66 -79 101 -115 34 -36 70 -77 79 -92 10
-16 25 -28 35 -28 9 0 32 -13 51 -29 19 -16 46 -35 60 -43 14 -7 28 -15 31
-19 3 -3 46 -22 95 -43 50 -21 108 -49 131 -62 22 -13 48 -24 57 -24 10 0 17
-4 17 -8 0 -5 21 -15 48 -24 101 -35 209 -76 254 -97 26 -11 52 -21 58 -21 5
0 18 -4 28 -9 26 -14 54 -24 82 -28 29 -4 79 -21 200 -69 84 -32 208 -69 285
-85 22 -4 57 -12 77 -17 30 -8 40 -7 53 7 22 25 20 29 -27 42 -24 6 -89 27
-144 46 l-101 35 32 66 c18 37 36 78 40 92 30 98 230 456 260 465 22 6 78 95
171 273 56 108 71 136 132 244 12 21 38 68 58 105 20 37 45 79 54 93 10 14 21
36 25 50 4 14 13 32 20 40 7 8 19 29 27 45 37 75 113 215 144 266 19 31 34 60
34 64 0 5 11 23 25 41 14 18 25 35 25 37 0 5 84 135 99 153 5 6 31 42 56 80
68 99 78 109 102 111 40 3 46 -20 15 -63 -16 -21 -43 -66 -61 -99 -18 -33 -36
-64 -41 -70 -10 -13 -58 -98 -155 -280 -21 -38 -44 -77 -50 -85 -7 -8 -20 -31
-29 -50 -17 -38 -20 -43 -82 -140 -23 -36 -62 -103 -86 -150 -25 -47 -57 -108
-73 -136 l-28 -51 23 -31 c22 -30 25 -31 42 -15 10 9 18 24 18 34 0 10 6 24
13 31 6 7 25 42 41 78 15 36 32 72 37 80 5 8 21 40 37 70 60 115 94 176 106
190 8 8 39 67 71 130 77 154 96 190 123 227 12 17 22 35 22 40 0 6 18 38 40
72 22 34 40 64 40 66 0 3 16 29 36 59 35 53 36 54 70 43 39 -12 41 -19 15 -55
-10 -15 -29 -45 -42 -67 -13 -22 -40 -66 -59 -98 -53 -87 -84 -143 -139 -252
-28 -55 -70 -136 -94 -181 -23 -44 -52 -103 -64 -130 -12 -27 -34 -75 -48
-107 -25 -54 -28 -87 -7 -87 15 0 50 43 78 95 14 28 32 61 40 75 7 14 22 46
34 72 11 26 24 49 29 52 5 4 27 43 49 89 22 45 51 98 64 117 23 33 44 76 67
130 6 14 24 48 41 75 16 28 33 57 37 65 20 44 107 170 117 171 53 6 59 -10 27
-71 -108 -201 -120 -227 -109 -238 15 -15 38 -15 38 -1 0 6 25 51 55 100 30
49 55 95 55 103 0 8 5 18 10 21 6 3 19 23 29 42 16 32 23 37 56 37 47 1 57 22
18 37 -15 6 -55 24 -88 39 -33 16 -91 38 -128 49 -38 11 -74 24 -80 28 -6 4
-18 8 -27 9 -18 2 -83 27 -90 34 -8 9 -114 50 -128 50 -7 0 -20 4 -30 9 -9 5
-53 21 -97 36 -91 30 -125 45 -125 55 0 4 18 28 40 53 22 25 40 50 40 56 0 6
4 11 9 11 5 0 23 21 40 48 16 26 36 54 44 62 8 8 38 47 67 85 30 39 97 124
149 189 131 163 192 240 248 311 26 33 50 62 53 65 28 27 90 124 102 160 27
79 133 335 141 338 4 2 7 10 7 17 0 8 14 44 31 82 16 37 35 79 41 93 5 14 16
38 24 53 8 16 14 33 14 37 0 5 15 42 34 82 31 65 86 220 86 240 0 4 11 31 23
60 23 52 29 67 69 181 22 62 19 87 -9 87 -13 0 -25 -18 -41 -62z m-1403 -2309
c17 -6 31 -15 31 -20 0 -14 -25 -52 -95 -144 -62 -81 -177 -252 -211 -314 -26
-47 -36 -62 -61 -97 -23 -32 -84 -138 -106 -184 -6 -14 -14 -27 -18 -30 -4 -3
-20 -30 -36 -60 -16 -30 -37 -68 -48 -83 -10 -16 -25 -41 -34 -57 -9 -16 -38
-67 -66 -112 -27 -46 -52 -87 -54 -92 -2 -5 -30 -51 -62 -103 -33 -52 -59 -96
-59 -99 0 -2 -24 -41 -53 -87 -30 -45 -66 -103 -80 -129 -14 -25 -39 -65 -56
-89 -17 -23 -31 -48 -31 -56 0 -7 -4 -13 -10 -13 -5 0 -10 -6 -10 -12 0 -7
-13 -28 -29 -47 l-28 -34 -7 92 c-7 90 -6 92 22 134 16 23 51 78 77 122 27 44
67 109 91 145 23 36 53 85 66 110 13 25 43 73 66 107 23 34 42 65 42 68 0 4
10 21 23 38 29 42 43 65 64 107 9 19 20 37 23 40 10 7 110 166 110 173 0 4 16
29 35 56 19 26 35 51 35 54 0 3 14 26 30 50 17 25 30 48 30 51 0 4 17 30 38
59 21 29 41 59 44 67 3 8 26 43 52 76 25 34 46 65 46 68 0 3 31 44 69 91 38
46 80 102 92 125 25 45 24 44 68 29z m164 -54 c18 -13 18 -15 0 -47 -10 -18
-21 -35 -24 -38 -3 -3 -12 -17 -20 -32 -8 -15 -44 -71 -80 -125 -55 -82 -100
-155 -224 -365 -5 -10 -22 -34 -36 -55 -25 -37 -52 -79 -292 -463 -64 -102
-121 -190 -126 -197 -6 -7 -11 -15 -11 -18 0 -3 -11 -22 -23 -43 -13 -20 -35
-57 -49 -82 -52 -92 -68 -120 -92 -159 -15 -22 -26 -45 -26 -49 0 -5 -9 -21
-21 -36 -25 -32 -63 -100 -126 -226 -27 -52 -52 -98 -56 -101 -4 -3 -15 -25
-25 -50 -47 -121 -73 -143 -139 -118 -24 9 -26 12 -13 22 8 7 24 30 35 52 11
22 29 56 41 75 12 19 25 46 29 60 4 14 13 32 20 40 7 8 39 67 72 130 33 63 70
131 81 150 23 37 36 61 99 180 70 132 104 191 217 375 60 99 114 182 118 183
4 2 8 8 8 13 0 5 16 33 35 63 19 30 35 58 35 61 0 4 11 23 25 43 14 21 54 82
89 137 36 55 78 118 93 140 16 22 68 103 117 180 49 77 97 152 106 166 10 14
32 53 49 87 29 57 34 62 64 62 17 0 40 -7 50 -15z m-333 -32 c-13 -23 -65 -82
-54 -63 9 17 58 80 62 80 1 0 -2 -8 -8 -17z m458 -9 c29 -8 28 -15 -12 -71
-18 -27 -50 -79 -69 -118 -19 -38 -56 -101 -81 -138 -25 -38 -46 -73 -46 -78
0 -5 -4 -9 -10 -9 -5 0 -10 -5 -10 -12 0 -6 -6 -19 -14 -27 -19 -21 -116 -180
-116 -190 0 -4 -9 -16 -20 -26 -11 -10 -20 -22 -20 -26 0 -4 -25 -50 -55 -102
-30 -51 -55 -98 -55 -104 0 -6 -7 -16 -15 -23 -8 -6 -33 -48 -56 -93 -23 -45
-50 -91 -60 -103 -11 -11 -19 -24 -19 -28 0 -4 -13 -26 -28 -49 -16 -23 -50
-87 -76 -142 -26 -55 -63 -125 -81 -155 -18 -30 -54 -98 -80 -150 -25 -52 -50
-102 -55 -110 -5 -8 -25 -46 -45 -85 -21 -38 -42 -76 -48 -83 -5 -7 -20 -34
-32 -60 -12 -26 -34 -75 -50 -109 -16 -35 -33 -63 -39 -63 -6 0 -22 -18 -36
-40 -14 -22 -30 -40 -36 -40 -13 0 -84 28 -84 34 0 9 86 186 107 219 19 31
152 288 198 383 23 47 40 79 45 84 6 6 49 85 65 117 5 13 13 23 18 23 4 0 7 5
7 11 0 6 14 30 30 54 17 24 30 47 30 50 0 4 10 21 23 38 12 17 27 39 32 49 29
50 104 170 136 218 20 30 46 73 58 95 12 22 29 52 39 67 9 14 40 64 69 110 29
45 56 88 60 93 5 6 49 75 98 155 78 128 212 333 240 368 30 37 61 71 65 71 3
0 15 -2 28 -5z m146 -55 c25 -12 25 -12 8 -43 -9 -17 -22 -38 -28 -46 -6 -8
-33 -55 -59 -104 -27 -49 -83 -143 -127 -208 -43 -65 -78 -122 -78 -127 0 -5
-4 -11 -8 -13 -9 -3 -82 -122 -82 -133 0 -3 -13 -25 -28 -48 -16 -23 -42 -67
-59 -97 -17 -30 -50 -89 -75 -130 -24 -41 -73 -129 -108 -195 -35 -66 -76
-145 -92 -175 -16 -30 -33 -59 -38 -65 -4 -5 -27 -46 -50 -90 -23 -44 -56
-100 -73 -125 -28 -42 -107 -178 -180 -310 -16 -30 -44 -80 -62 -110 -18 -30
-50 -92 -71 -137 -36 -74 -41 -81 -64 -76 -46 10 -51 21 -30 61 11 20 20 40
20 45 0 9 103 217 137 277 11 19 32 58 48 85 15 28 36 62 46 77 11 14 19 33
19 41 0 9 4 18 8 21 5 3 50 89 102 193 52 103 97 190 100 193 3 3 33 50 65
105 32 55 65 111 74 125 9 14 21 34 27 45 6 11 22 39 35 61 38 65 118 194 160
256 22 31 39 62 39 68 0 5 4 10 8 10 4 0 16 15 26 33 10 17 33 55 51 82 18 28
43 68 55 90 19 37 83 136 184 291 33 50 62 84 72 84 2 0 14 -5 28 -11z m-776
-174 c-6 -14 -15 -25 -20 -25 -4 0 -8 -6 -8 -14 0 -8 -3 -16 -8 -18 -4 -1 -31
-43 -61 -93 -29 -49 -62 -99 -72 -110 -11 -11 -41 -54 -66 -95 -26 -41 -75
-118 -110 -171 -35 -53 -63 -100 -63 -106 0 -5 -13 -24 -30 -43 -16 -18 -39
-52 -51 -74 -11 -23 -34 -63 -51 -91 -17 -27 -41 -66 -52 -86 -12 -19 -55 -87
-97 -150 -42 -63 -86 -130 -97 -149 l-22 -35 0 45 c0 25 -5 74 -10 109 -10 70
-3 91 59 176 15 22 59 87 97 145 148 227 194 279 312 354 49 31 72 52 72 65 0
11 5 23 10 26 12 8 130 163 130 171 0 4 14 23 30 43 46 54 50 60 50 66 0 7 61
85 66 85 2 0 -2 -11 -8 -25z m-592 -589 c-42 -56 -189 -270 -220 -322 l-29
-49 -19 63 -19 63 30 35 c17 19 31 38 31 43 0 11 111 121 122 121 4 0 34 18
65 40 32 22 60 40 62 40 2 0 -8 -15 -23 -34z m-612 -272 c4 -9 0 -22 -7 -28
-8 -6 -25 -27 -38 -46 -13 -19 -28 -40 -34 -46 -5 -6 -17 -22 -25 -34 -8 -13
-25 -35 -36 -49 -24 -29 -164 -247 -164 -255 0 -3 -13 -24 -28 -48 -16 -24
-46 -69 -67 -101 l-38 -58 -48 47 c-46 45 -61 74 -40 74 5 0 30 28 56 63 25
34 53 70 61 80 8 9 14 21 14 26 0 5 4 11 8 13 5 2 28 32 52 68 24 36 84 120
134 187 l91 122 51 1 c39 0 53 -4 58 -16z m-201 -6 c-23 -38 -168 -245 -180
-256 -7 -7 -29 -39 -50 -70 -21 -31 -40 -59 -43 -62 -4 -3 -25 -31 -49 -62
-23 -32 -45 -58 -49 -58 -10 1 -72 84 -72 97 0 5 8 19 18 31 9 11 24 29 32 39
68 82 107 129 115 139 6 6 44 54 85 107 41 53 82 98 90 100 8 3 37 5 63 6 36
1 46 -2 40 -11z m-246 -45 c-15 -21 -58 -78 -96 -128 -38 -49 -78 -101 -89
-115 -10 -14 -22 -37 -26 -52 -3 -16 -11 -28 -16 -28 -5 0 -23 29 -40 64 l-30
64 32 34 c18 18 51 56 73 83 85 103 79 99 147 111 34 5 65 9 67 7 2 -1 -8 -20
-22 -40z m-199 0 c-8 -10 -36 -44 -62 -75 -27 -32 -52 -58 -56 -58 -10 0 -39
76 -43 110 -2 24 1 25 63 31 122 11 115 11 98 -8z m682 -56 c0 -7 7 -25 16
-42 23 -44 22 -100 -2 -127 -27 -30 -194 -266 -194 -274 0 -3 -13 -24 -29 -47
-34 -50 -94 -145 -108 -170 -8 -16 -14 -14 -61 23 -29 23 -52 43 -52 46 0 2
55 88 123 191 68 104 130 199 139 213 9 14 24 34 34 46 11 11 24 27 29 36 6 9
28 41 50 71 37 52 55 63 55 34z m59 -284 c22 -109 16 -131 -62 -257 -26 -42
-74 -90 -125 -124 -30 -19 -58 -46 -63 -59 -4 -12 -13 -23 -18 -23 -15 0 -71
34 -71 43 0 14 211 324 270 397 11 14 26 37 32 53 7 15 16 27 19 27 3 0 11
-26 18 -57z m19 -342 c-4 -52 -13 -99 -18 -106 -5 -6 -7 -22 -5 -36 6 -31 -21
-89 -42 -89 -8 0 -33 10 -54 22 -51 28 -50 51 4 136 55 87 58 92 85 142 13 23
27 38 31 34 5 -5 4 -51 -1 -103z"/>
<path d="M9243 12373 c-6 -60 -12 -151 -12 -203 -1 -113 -25 -349 -47 -475 -9
-49 -18 -103 -19 -120 -4 -38 -22 -174 -33 -245 -8 -47 -39 -126 -72 -180 -5
-8 -22 -40 -38 -70 -76 -143 -104 -196 -112 -205 -8 -11 -43 -74 -98 -175 -19
-36 -58 -108 -87 -160 -60 -108 -68 -129 -56 -149 8 -12 12 -12 25 -2 19 16
22 0 4 -28 -13 -21 -5 -51 14 -51 7 0 26 21 41 46 25 42 29 45 41 29 11 -16
13 -15 28 6 8 13 23 50 33 82 10 32 38 92 61 134 24 42 44 79 44 82 0 3 50
105 110 226 60 121 110 227 110 236 0 9 6 22 14 28 8 7 17 24 21 39 3 14 15
46 26 70 17 36 21 71 24 210 3 92 7 183 9 202 5 31 21 512 18 550 0 8 -1 63
-3 123 -1 93 -4 107 -18 107 -15 0 -19 -17 -28 -107z"/>
<path d="M14038 11630 c-98 -34 -226 -120 -350 -237 -30 -27 -38 -42 -38 -70
0 -19 -5 -43 -10 -53 -6 -12 -7 -28 -1 -44 6 -13 11 -55 12 -93 1 -37 10 -142
19 -233 26 -236 66 -369 101 -333 4 4 13 62 19 128 7 66 13 123 16 126 2 3 13
50 24 105 28 129 54 209 80 241 11 14 20 30 20 35 0 18 64 143 107 211 24 37
43 70 43 73 0 4 23 35 51 71 36 44 49 67 41 75 -19 19 -77 18 -134 -2z m-60
-137 c-2 -5 -11 -24 -20 -43 -9 -19 -38 -80 -66 -135 -27 -55 -64 -142 -82
-193 -36 -107 -35 -103 -59 -237 l-18 -100 -8 108 c-4 59 -6 176 -3 258 l4
151 60 54 c32 30 71 63 87 72 15 9 27 20 27 24 0 4 6 8 13 8 6 0 23 9 37 20
27 21 33 24 28 13z"/>
<path d="M11405 11298 c-55 -8 -67 -21 -53 -57 6 -14 24 -64 40 -111 16 -47
36 -98 43 -115 8 -16 26 -68 41 -115 14 -47 30 -89 34 -95 4 -5 15 -39 24 -75
16 -59 36 -112 71 -195 7 -16 25 -66 40 -110 14 -44 31 -89 36 -100 5 -11 11
-29 14 -40 2 -11 16 -52 31 -92 23 -62 30 -73 55 -78 16 -4 37 -4 46 -1 16 5
214 17 306 18 45 1 45 2 -15 128 -22 47 -43 94 -48 105 -5 11 -22 49 -38 85
-17 36 -52 117 -80 180 -81 186 -154 343 -251 540 l-66 135 -91 0 c-50 0 -112
-3 -139 -7z"/>
<path d="M15079 11241 c-25 -15 -56 -41 -68 -57 -12 -16 -41 -49 -64 -74 -23
-25 -56 -63 -72 -85 -16 -22 -33 -41 -37 -43 -4 -2 -8 -10 -8 -17 0 -7 -4 -15
-9 -17 -12 -4 -57 -69 -148 -214 -7 -10 -22 -40 -34 -66 -12 -27 -24 -48 -28
-48 -3 0 -11 -12 -18 -27 -57 -132 -83 -200 -83 -221 0 -7 -8 -31 -19 -55 -10
-23 -28 -63 -40 -89 -11 -26 -21 -54 -21 -62 0 -8 -4 -17 -9 -20 -9 -6 -20
-56 -24 -116 -3 -47 19 -49 64 -7 63 60 149 113 149 92 0 -3 -9 -45 -19 -93
-19 -87 -27 -134 -57 -357 -9 -66 -18 -123 -20 -126 -2 -4 -8 -36 -13 -71 -7
-51 -6 -78 7 -124 8 -32 16 -84 16 -114 1 -48 4 -55 21 -55 11 0 20 7 20 15 0
8 8 32 17 52 9 21 33 92 54 158 23 79 45 130 60 145 13 13 24 30 24 36 0 31
127 313 171 379 9 14 27 45 41 70 37 67 145 244 205 337 29 45 53 85 53 89 0
4 9 18 21 30 l21 22 -21 7 c-11 3 -29 2 -39 -4 -12 -6 -22 -7 -28 -1 -12 12
-171 -5 -189 -20 -67 -56 20 235 151 505 32 66 59 136 61 155 1 19 7 36 13 38
15 5 12 32 -5 38 -8 4 -15 12 -15 19 0 10 -20 25 -34 25 -1 0 -22 -13 -47 -29z
m-61 -198 c-21 -43 -32 -71 -61 -148 -19 -49 -42 -115 -52 -145 -10 -30 -24
-67 -31 -82 -23 -44 -64 -220 -64 -272 0 -42 2 -47 18 -41 36 15 109 36 152
45 25 5 53 12 64 16 20 8 24 15 -75 -133 -25 -37 -55 -84 -65 -103 -10 -19
-22 -37 -25 -40 -3 -3 -21 -36 -40 -75 -19 -38 -46 -89 -61 -111 -16 -23 -28
-45 -28 -50 0 -4 -13 -35 -29 -68 -62 -131 -81 -175 -81 -189 0 -7 -3 -17 -7
-21 -5 -4 -13 -24 -20 -44 -12 -36 -12 -35 -8 23 6 78 21 185 40 288 37 190
54 253 77 289 17 26 9 48 -19 48 -23 0 -164 -53 -205 -76 -8 -5 7 50 26 91 7
16 22 50 32 75 31 74 102 209 160 305 30 50 60 99 67 110 7 11 31 46 55 78 23
31 42 62 42 67 0 6 3 10 8 10 4 1 23 24 42 51 42 62 80 109 86 109 3 0 4 -3 2
-7z"/>
<path d="M11190 11223 c-70 -40 -150 -94 -150 -101 0 -6 62 -239 74 -277 15
-52 26 -96 31 -125 3 -19 21 -96 40 -170 19 -75 37 -151 39 -170 3 -19 8 -46
11 -60 11 -50 25 -116 36 -170 5 -30 15 -71 21 -90 7 -19 12 -39 12 -45 1 -5
6 -19 12 -29 13 -21 14 -21 139 19 22 7 67 21 100 30 95 29 121 56 96 103 -5
9 -17 44 -26 77 -10 33 -30 98 -47 145 -16 47 -31 95 -33 107 -5 36 -36 124
-61 177 -13 27 -22 51 -20 54 2 2 -5 29 -16 60 -10 32 -21 64 -23 72 -13 48
-50 153 -71 205 -30 72 -35 83 -65 157 -15 35 -30 57 -39 57 -8 0 -35 -12 -60
-26z"/>
<path d="M12985 11015 c-33 -36 -62 -73 -64 -82 -2 -10 -6 -22 -10 -28 -4 -5
-15 -31 -25 -57 -17 -46 -17 -47 9 -105 15 -32 38 -72 51 -90 13 -17 24 -36
24 -42 0 -5 11 -22 24 -38 13 -15 26 -37 30 -48 7 -23 58 -79 125 -138 40 -35
45 -37 60 -23 14 15 12 25 -16 114 -18 53 -35 111 -38 127 -3 17 -7 39 -9 50
-36 174 -47 242 -51 305 -9 145 -21 151 -110 55z"/>
<path d="M5061 10871 c-6 -10 -8 -21 -4 -24 3 -4 1 -13 -6 -20 -6 -8 -20 -39
-30 -69 -10 -30 -23 -63 -29 -74 -31 -58 -51 -105 -55 -133 -3 -17 -30 -78
-61 -136 -30 -58 -53 -105 -49 -105 3 0 -1 -8 -9 -17 -9 -10 -26 -38 -38 -63
-13 -25 -26 -47 -30 -50 -4 -3 -18 -25 -32 -50 -14 -25 -42 -74 -62 -108 -20
-35 -36 -68 -36 -72 0 -12 -86 -136 -132 -191 -21 -25 -38 -48 -38 -52 0 -3
-12 -19 -26 -34 -14 -15 -34 -44 -44 -63 -11 -19 -36 -53 -56 -75 -21 -22 -66
-73 -101 -113 -35 -40 -80 -88 -101 -106 -83 -74 -233 -196 -240 -196 -5 0
-37 -20 -73 -45 -35 -25 -69 -45 -75 -45 -6 0 -22 -8 -35 -18 -27 -21 -181
-84 -249 -102 -25 -7 -85 -28 -135 -47 -114 -45 -164 -50 -536 -59 -167 -3
-317 -7 -334 -9 -26 -2 -68 3 -185 19 -14 2 -54 11 -90 19 -36 9 -123 29 -195
45 -228 52 -280 64 -300 73 -50 22 -147 49 -196 55 -46 5 -57 3 -72 -14 -40
-44 -17 -60 153 -102 41 -10 118 -30 170 -44 126 -33 306 -65 405 -72 44 -3
104 -9 133 -14 29 -5 56 -9 60 -8 4 1 48 -4 97 -12 61 -10 180 -14 365 -14
234 -1 283 2 330 17 30 9 91 26 135 37 145 35 259 71 317 101 10 5 27 9 37 9
11 0 22 4 26 9 3 5 18 12 34 16 16 3 54 23 84 43 73 51 86 58 132 82 92 47
130 76 265 200 144 133 197 189 229 245 14 24 46 66 71 92 95 101 250 331 286
424 10 24 26 55 36 68 10 13 18 28 18 33 0 6 37 85 81 177 45 91 95 195 112
231 17 36 44 88 61 115 17 28 36 59 43 70 74 120 78 143 34 174 -36 26 -47 26
-60 2z"/>
<path d="M13754 10368 c-69 -52 -174 -151 -187 -176 -8 -15 -29 -54 -47 -87
-17 -33 -40 -67 -49 -75 -22 -18 -33 -90 -21 -128 5 -15 11 -49 14 -77 7 -75
24 -186 35 -230 33 -138 63 -241 71 -249 6 -6 10 -22 10 -37 0 -15 5 -31 10
-34 6 -3 10 -12 10 -20 0 -42 170 -377 198 -390 11 -5 23 -17 25 -27 6 -22 26
-23 34 -2 3 9 -8 95 -25 192 -17 98 -34 193 -36 212 -3 19 -10 62 -17 95 -24
117 -11 873 17 964 27 90 14 112 -42 69z m-70 -240 c-8 -77 -10 -511 -2 -608
11 -145 18 -211 29 -259 5 -24 8 -45 6 -48 -9 -8 -25 26 -46 97 -13 41 -27 86
-31 100 -5 14 -21 70 -35 125 -15 55 -33 123 -40 150 -8 28 -17 73 -21 100 -4
28 -9 57 -11 65 -13 60 -6 99 27 151 19 30 37 56 40 59 3 3 23 29 45 58 21 28
40 52 41 52 2 0 1 -19 -2 -42z"/>
<path d="M10353 10362 c-8 -5 -10 -32 -6 -91 l6 -83 36 -17 c38 -17 151 -129
151 -149 0 -13 48 -28 57 -18 11 11 -17 77 -58 138 -22 31 -39 62 -39 67 0 6
-5 11 -11 11 -5 0 -16 15 -24 33 -8 19 -21 40 -30 47 -9 7 -23 26 -31 42 -15
28 -29 34 -51 20z"/>
<path d="M9951 10207 c-6 -6 -11 -17 -11 -24 0 -7 34 -83 76 -168 57 -117 80
-155 94 -155 10 0 22 5 26 11 12 20 105 0 184 -39 108 -53 206 -143 216 -199
7 -35 42 -69 57 -54 4 4 9 21 9 38 1 28 -18 62 -120 216 -49 73 -179 207 -252
259 -25 18 -47 35 -50 38 -31 32 -213 93 -229 77z m230 -172 c38 -25 72 -45
75 -45 8 0 96 -71 112 -90 7 -8 22 -28 34 -45 l23 -30 -25 18 c-14 9 -36 22
-50 29 -14 6 -44 20 -66 30 -23 10 -57 20 -75 22 -51 5 -83 21 -95 47 -34 73
-54 120 -54 124 0 10 56 -18 121 -60z"/>
<path d="M18408 10155 c-1 -2 -46 -6 -98 -10 -52 -3 -102 -8 -110 -10 -8 -2
-40 -7 -70 -10 -48 -6 -73 -10 -165 -31 -11 -3 -45 -9 -75 -15 -58 -11 -299
-67 -410 -96 -36 -10 -67 -18 -70 -18 -48 -9 -79 -22 -99 -41 -13 -13 -30 -24
-37 -24 -31 0 -439 -188 -454 -209 -3 -4 -13 -10 -22 -14 -21 -7 -24 -40 -5
-54 14 -12 18 -11 142 16 85 19 187 28 140 12 -26 -8 -168 -82 -175 -90 -3 -3
-23 -15 -45 -26 -75 -37 -233 -150 -312 -222 -43 -39 -96 -88 -118 -107 l-40
-35 22 -22 21 -22 64 36 c34 19 78 38 95 42 18 3 35 11 38 16 4 5 12 9 19 9 8
0 49 20 92 43 44 24 111 56 149 72 70 28 122 51 245 108 109 50 272 109 435
156 39 11 149 32 245 46 96 14 211 32 255 40 44 8 97 16 118 19 21 2 43 8 50
15 6 6 21 11 34 11 27 0 29 17 5 47 -22 29 -88 42 -267 50 l-140 7 105 34 c58
18 130 40 160 48 140 38 216 57 230 59 8 1 42 5 75 9 95 12 114 15 215 34 l95
17 -2 34 c0 18 -5 37 -10 42 -5 5 -67 11 -138 14 -71 3 -132 9 -135 13 -5 8
-45 13 -52 7z m-20 -105 c-9 -6 -67 -21 -130 -35 -62 -14 -135 -31 -163 -39
-27 -8 -68 -20 -90 -26 -52 -15 -122 -39 -160 -55 -90 -39 -182 -65 -216 -61
-39 5 -49 -4 -49 -44 0 -37 25 -44 98 -27 96 23 201 27 327 13 120 -14 115
-18 -35 -35 -158 -18 -285 -40 -385 -66 -33 -9 -70 -18 -82 -19 -34 -6 -186
-50 -228 -67 -11 -4 -31 -11 -45 -14 -30 -8 -341 -135 -355 -145 -5 -4 -46
-27 -90 -50 -44 -24 -94 -53 -112 -66 -17 -13 -40 -23 -50 -23 -17 1 -17 2 0
6 9 2 17 9 17 14 0 8 54 48 109 79 14 8 28 18 31 21 3 3 25 15 50 27 25 12 53
27 63 32 40 23 54 30 96 50 24 11 47 20 52 20 5 0 43 16 84 35 76 36 221 91
240 91 6 0 31 10 57 23 46 24 67 55 45 68 -20 12 -171 16 -210 5 -33 -9 -37
-9 -26 4 6 8 18 14 25 14 12 0 35 10 137 61 22 10 48 19 58 19 11 0 27 4 37 9
52 27 200 72 332 101 19 4 42 10 50 14 8 3 31 7 50 10 19 2 67 9 105 15 39 6
114 19 168 27 54 9 109 14 123 11 13 -2 27 0 30 4 3 5 17 9 32 9 22 -1 24 -2
10 -10z"/>
<path d="M3755 10124 c-103 -14 -266 -51 -280 -65 -5 -5 -17 -9 -26 -9 -36 0
-347 -151 -369 -179 -3 -3 -21 -15 -40 -25 -125 -69 -420 -358 -420 -411 0 -8
-4 -15 -8 -15 -5 0 -17 -19 -28 -42 -10 -24 -21 -45 -24 -48 -3 -3 -28 -52
-57 -110 -56 -113 -73 -166 -80 -247 -4 -43 -2 -54 12 -59 28 -11 53 26 74
106 28 106 132 349 154 358 4 2 7 8 7 14 0 28 111 147 235 251 71 59 90 75
180 148 43 34 300 169 323 169 5 0 50 14 101 31 51 17 100 32 109 34 9 2 52
10 94 19 101 21 155 25 374 25 152 1 183 3 188 16 3 9 -5 22 -21 32 -23 16
-53 18 -218 18 -104 0 -230 -5 -280 -11z"/>
<path d="M17035 10066 c-27 -13 -79 -33 -115 -46 -138 -48 -290 -111 -410
-169 -164 -80 -351 -179 -371 -197 -8 -8 -20 -14 -26 -14 -6 0 -21 -8 -34 -19
-13 -10 -45 -29 -71 -43 -66 -35 -465 -295 -576 -375 -99 -72 -227 -174 -311
-248 -79 -69 -436 -416 -444 -432 -14 -23 -1 -27 59 -14 32 6 68 11 82 11 17
0 53 29 125 99 56 55 131 125 166 158 36 32 77 70 92 85 15 14 61 52 101 85
40 32 82 68 93 80 11 13 24 23 28 23 4 0 18 9 30 21 12 11 47 39 77 62 30 23
66 52 80 65 14 12 28 22 31 22 4 0 38 24 75 53 38 29 92 68 119 87 28 18 52
37 55 40 3 3 41 30 85 60 44 29 92 62 107 72 15 10 30 18 34 18 3 0 26 14 51
30 24 17 46 30 50 30 3 0 127 60 277 134 149 73 291 141 316 150 25 10 55 24
68 32 12 8 22 10 22 5 0 -6 -17 -20 -38 -33 -21 -13 -109 -72 -196 -133 -87
-60 -187 -128 -222 -150 -36 -23 -78 -53 -95 -68 -17 -15 -34 -27 -38 -27 -12
0 -281 -199 -379 -281 -125 -105 -256 -224 -331 -302 -20 -21 -68 -70 -106
-110 -81 -83 -220 -246 -214 -251 20 -17 301 -148 324 -151 71 -9 179 -29 218
-40 26 -7 27 -8 10 -20 -10 -6 -31 -15 -46 -19 -32 -8 -28 -20 13 -41 34 -17
56 -19 123 -10 26 3 84 9 129 13 68 6 83 10 86 25 2 10 -4 20 -15 23 -36 12
-88 35 -113 50 -14 8 -46 24 -72 36 -27 11 -48 24 -48 29 0 10 -90 36 -150 43
-25 3 -72 10 -105 16 -33 6 -100 10 -150 9 -69 -1 -89 2 -87 12 2 7 9 17 16
23 7 6 48 50 90 98 89 102 345 354 461 454 44 38 148 123 230 189 83 66 186
151 231 190 44 38 113 95 152 125 40 30 72 58 72 62 0 5 5 8 11 8 6 0 39 22
73 49 34 26 72 53 84 60 12 6 52 33 88 59 36 26 73 52 82 57 9 6 29 18 44 28
14 9 33 17 42 17 9 0 16 5 16 11 0 6 11 20 25 31 19 15 24 26 19 42 -13 42
-30 44 -99 12z"/>
<path d="M9189 10059 c0 -8 -2 -30 -3 -49 -2 -19 5 -53 14 -75 10 -22 34 -76
53 -120 48 -108 66 -199 60 -310 -5 -107 -6 -116 -29 -191 -36 -115 -157 -270
-266 -340 -20 -13 -42 -34 -49 -46 -6 -12 -20 -31 -30 -42 -23 -24 -24 -42 -3
-50 9 -3 17 -6 19 -6 3 0 54 39 106 82 64 53 124 72 289 97 101 15 238 -36
307 -113 75 -85 199 -242 232 -294 24 -37 37 -50 44 -43 6 6 21 11 34 11 34 0
39 27 15 74 -41 78 -113 281 -123 351 -10 60 -7 217 4 265 20 86 33 110 120
229 36 49 146 121 186 121 14 1 39 11 55 24 25 21 27 26 16 46 -8 16 -18 20
-33 17 -80 -20 -112 -30 -192 -63 -130 -52 -217 -57 -322 -18 -66 24 -88 39
-143 94 -74 75 -131 144 -210 253 -30 42 -62 76 -72 76 -9 1 -18 5 -20 10 -6
17 -58 25 -59 10z m256 -340 c132 -138 278 -214 392 -204 32 3 67 8 78 11 14
4 9 -4 -17 -31 -21 -21 -38 -44 -38 -51 0 -8 -4 -14 -9 -14 -10 0 -56 -107
-71 -169 -12 -45 -12 -258 -1 -276 4 -5 15 -35 25 -65 11 -30 22 -59 26 -65
11 -15 32 -81 22 -70 -4 6 -26 33 -47 60 -60 76 -182 193 -218 209 -92 41
-236 51 -318 21 -84 -31 -85 -29 -20 37 34 36 70 80 78 99 9 19 22 47 30 64
30 63 42 246 24 355 -5 30 -28 94 -50 142 -23 48 -41 93 -41 100 0 7 16 -5 36
-27 20 -22 73 -79 119 -126z"/>
<path d="M12144 10027 c-16 -19 -54 -51 -84 -70 -30 -20 -67 -46 -82 -58 -21
-15 -28 -17 -28 -7 0 8 -13 27 -29 42 -27 25 -35 28 -107 28 -59 0 -99 -6
-156 -26 -42 -14 -87 -27 -100 -30 -71 -13 -447 -168 -456 -188 -2 -4 -9 -5
-17 -2 -7 3 -16 1 -19 -4 -4 -6 -38 -8 -84 -5 -72 5 -81 4 -99 -16 -39 -42
-63 -172 -44 -243 6 -24 13 -63 16 -88 13 -124 14 -140 9 -140 -3 0 -18 8 -32
18 -22 15 -227 128 -255 140 -4 2 -94 -61 -200 -140 -106 -79 -217 -161 -247
-183 -86 -61 -161 -126 -155 -135 6 -10 209 -110 222 -110 5 0 35 -14 68 -31
33 -17 98 -47 145 -66 l85 -34 50 25 c71 35 210 96 218 96 4 0 7 -18 5 -40 -1
-27 -7 -40 -16 -40 -8 0 -44 -30 -79 -67 -36 -38 -124 -130 -196 -207 -73 -76
-158 -163 -189 -194 -69 -66 -71 -81 -33 -241 14 -57 24 -105 22 -107 -3 -4
-53 30 -143 98 -28 21 -56 38 -62 38 -7 0 -12 4 -12 9 0 5 -9 13 -20 16 -11 4
-33 18 -50 31 -29 25 -30 25 -76 9 -26 -9 -59 -24 -73 -33 -14 -10 -51 -29
-81 -42 -30 -13 -61 -28 -68 -33 -7 -5 -25 -17 -41 -26 -17 -9 -55 -40 -86
-69 -57 -55 -65 -82 -28 -96 39 -15 134 -19 158 -6 24 13 137 10 250 -6 57 -8
285 -61 320 -74 17 -7 45 -8 70 -4 44 8 42 8 68 -1 14 -6 17 -2 17 24 0 17 -4
31 -8 31 -4 0 -30 20 -57 45 l-49 44 106 -4 c120 -5 115 -8 138 74 8 30 22 58
30 62 22 12 161 75 193 88 37 15 34 28 -10 35 -21 4 -62 16 -91 27 -69 25 -70
25 -80 -13 -8 -33 -17 -40 -97 -74 -22 -9 -43 -18 -47 -21 -12 -6 -26 31 -32
84 -6 46 -3 55 27 101 38 55 177 225 189 230 4 2 8 8 8 12 0 12 91 110 102
110 16 0 -16 -172 -41 -219 -25 -46 -9 -56 109 -67 25 -2 79 -9 120 -15 120
-18 138 -17 183 5 23 12 83 39 132 60 50 22 114 50 143 63 29 12 57 23 61 23
5 0 22 6 38 14 45 23 127 57 143 60 56 11 266 89 283 105 12 12 -238 156 -323
186 -19 7 -66 27 -105 45 -141 64 -136 61 -255 111 -30 12 -60 27 -67 32 -18
13 -117 -66 -266 -214 l-129 -127 5 47 c8 83 15 95 108 184 96 93 93 93 -53
-4 l-57 -37 19 48 c10 26 17 56 14 66 -4 14 6 25 38 42 24 12 46 22 50 22 4 0
24 11 44 25 l36 25 -51 22 c-55 25 -61 39 -36 88 16 31 21 31 110 -3 77 -30
96 -30 119 -5 12 13 71 68 131 122 158 142 182 164 265 236 41 35 77 67 80 70
9 10 139 117 269 222 73 58 79 63 84 58 1 -3 1 -46 -1 -97 -4 -90 -4 -92 -33
-103 -16 -7 -29 -16 -29 -21 0 -5 -12 -15 -28 -23 -25 -13 -233 -167 -258
-190 -6 -6 -54 -51 -107 -100 -54 -48 -97 -93 -97 -99 0 -6 -21 -31 -47 -55
-27 -24 -43 -41 -38 -39 10 5 72 12 190 22 39 4 77 8 85 10 18 5 167 14 318
20 l113 5 84 50 c46 28 125 83 176 123 50 40 100 78 110 86 16 12 29 9 99 -19
44 -18 83 -37 86 -42 6 -10 -75 -92 -274 -281 -82 -77 -83 -78 -125 -72 -72
10 -536 13 -585 3 -26 -5 -79 -9 -118 -8 -39 0 -82 -4 -95 -9 -23 -9 -23 -10
6 -11 30 -1 110 -19 175 -40 40 -12 119 -29 170 -36 19 -3 49 -9 65 -14 36
-11 138 -31 180 -36 17 -1 54 -5 83 -8 39 -3 58 -11 72 -28 11 -13 19 -26 20
-30 0 -4 21 -32 48 -61 26 -29 67 -76 92 -106 25 -29 57 -67 72 -85 15 -17 69
-85 120 -151 51 -65 127 -155 170 -198 67 -69 79 -77 96 -68 11 6 81 20 156
30 l136 20 55 47 c31 26 59 52 63 59 4 6 53 48 108 93 111 90 127 106 131 130
26 181 34 226 37 229 2 2 13 -23 26 -57 l22 -60 -26 -83 c-25 -78 -30 -85
-103 -152 -42 -39 -99 -92 -127 -118 l-51 -49 55 6 c51 6 170 27 351 62 42 7
97 14 123 14 58 0 63 11 46 99 -12 61 -18 80 -41 136 -4 11 -22 65 -39 120
-17 55 -38 118 -46 140 -8 23 -14 50 -14 62 0 11 -6 26 -14 32 -17 15 -121 44
-164 46 -37 2 -41 5 -47 33 -2 12 -10 36 -19 54 -8 18 -47 112 -87 208 -40 96
-75 177 -78 180 -4 3 -22 25 -41 50 -19 25 -63 78 -97 118 -35 40 -63 79 -63
86 0 8 23 31 52 52 28 21 72 57 96 81 38 35 43 45 33 57 -16 19 -177 65 -326
92 -16 3 -34 9 -40 14 -5 4 -40 11 -77 15 -37 3 -89 12 -117 20 -28 7 -51 11
-51 9 0 -3 -8 0 -18 5 -10 5 -63 12 -118 15 -54 4 -133 9 -175 12 l-76 5 -29
-34z m251 -212 c86 -14 174 -38 269 -75 l30 -11 -25 -22 c-13 -13 -33 -29 -45
-37 -24 -17 -112 -92 -158 -133 -65 -60 -71 -62 -124 -41 -26 10 -49 19 -52
20 -3 0 -17 6 -32 12 -62 26 -144 44 -224 50 -46 4 -84 10 -84 15 0 4 0 22 0
40 0 29 9 38 107 107 59 41 113 77 120 80 30 12 127 10 218 -5z m403 -307 c11
-41 1 -63 -40 -88 -32 -19 -134 -38 -145 -26 -4 4 4 14 18 23 13 10 40 32 59
50 53 50 82 73 91 73 5 0 12 -15 17 -32z m-2130 -345 c46 -18 88 -33 95 -33 7
0 25 -11 42 -24 l29 -23 -19 -59 c-10 -33 -24 -64 -30 -70 -5 -6 -39 -21 -75
-32 -85 -27 -180 -61 -203 -74 -14 -7 -39 -1 -103 26 -46 20 -97 39 -114 42
-16 4 -30 10 -30 14 0 4 32 38 72 76 39 38 101 99 137 136 75 76 65 75 199 21z
m-722 -1164 c8 8 41 -6 155 -68 24 -13 46 -27 49 -31 3 -3 38 -28 78 -54 39
-26 72 -50 72 -55 0 -5 -30 2 -67 15 -36 13 -87 26 -112 30 -25 4 -50 9 -56
12 -5 4 -19 8 -30 9 -11 2 -48 7 -82 13 -34 6 -65 10 -70 9 -35 -6 -183 3
-183 11 0 6 4 10 9 10 8 0 130 76 156 98 21 17 40 19 56 6 9 -8 19 -10 25 -5z"/>
<path d="M4018 9905 c-2 -2 -50 -6 -108 -10 -58 -4 -108 -9 -111 -10 -3 -2
-27 -6 -53 -10 -58 -6 -133 -23 -161 -35 -11 -5 -63 -23 -115 -41 -136 -45
-264 -111 -365 -188 -48 -36 -100 -75 -114 -85 -24 -18 -91 -92 -143 -156 -11
-14 -31 -47 -45 -75 -14 -27 -31 -57 -38 -65 -7 -8 -32 -58 -55 -110 -23 -52
-47 -104 -52 -116 -14 -30 -6 -85 15 -98 25 -15 47 17 77 108 22 68 53 124
119 211 17 22 36 50 42 63 7 12 16 22 21 22 4 0 8 6 8 13 0 28 241 237 354
307 37 22 68 40 71 40 2 0 37 16 78 35 41 19 80 35 88 35 8 0 25 6 39 13 34
18 190 58 243 62 131 12 169 16 242 26 44 6 98 8 121 4 35 -5 42 -3 46 13 3
11 1 27 -4 36 -8 14 -24 17 -103 15 -52 -1 -96 -3 -97 -4z"/>
<path d="M14470 9730 c0 -5 -20 -32 -45 -60 -25 -28 -45 -54 -45 -58 0 -4 -15
-23 -33 -42 -42 -45 -76 -94 -106 -150 -14 -25 -35 -58 -47 -75 -26 -35 -124
-234 -124 -252 0 -7 -4 -13 -9 -13 -34 0 -258 -655 -236 -690 6 -9 17 -8 113
8 50 9 83 30 130 82 11 13 12 10 7 -17 -8 -39 1 -44 52 -32 39 10 41 13 53 67
6 32 16 66 21 77 4 11 9 31 11 45 3 23 0 25 -36 22 -21 -2 -50 -11 -65 -21
-14 -10 -52 -35 -84 -57 -32 -21 -63 -46 -68 -56 -12 -22 -29 -24 -29 -3 0 17
66 220 103 315 94 244 234 534 284 589 18 20 33 30 33 23 0 -7 -17 -65 -38
-130 -84 -255 -147 -513 -134 -550 5 -17 64 -2 88 23 19 21 157 95 177 95 4 0
32 11 61 24 29 14 72 30 95 36 23 6 49 14 57 17 28 11 14 -37 -32 -102 -11
-17 -28 -43 -36 -60 -8 -16 -26 -50 -40 -75 -59 -106 -118 -223 -114 -227 3
-3 27 -2 53 2 l49 6 39 77 c50 97 103 189 182 317 7 11 22 36 33 56 10 21 27
44 36 53 15 16 15 19 -4 39 -12 12 -42 28 -67 36 -43 13 -52 12 -148 -18 -56
-18 -110 -36 -119 -42 -10 -5 -22 -9 -28 -9 -6 0 -43 -16 -83 -35 -39 -19 -73
-35 -74 -35 -7 0 -2 56 6 89 6 20 20 81 31 136 22 101 35 146 73 265 12 36 20
68 19 73 -1 4 2 7 7 7 4 0 16 26 26 58 10 31 21 62 25 67 16 23 28 93 17 104
-14 14 -37 14 -37 1z"/>
<path d="M8055 9425 c-2 -5 -6 -75 -9 -155 -10 -269 -92 -588 -182 -707 -13
-17 -24 -35 -24 -39 0 -10 -63 -85 -123 -148 -68 -69 -132 -111 -231 -153 -45
-18 -90 -38 -101 -43 -59 -28 -140 -61 -159 -64 -11 -2 -48 -15 -81 -29 -33
-14 -102 -41 -153 -59 -69 -24 -94 -38 -98 -53 -4 -15 -14 -21 -47 -23 -22 -1
-43 -4 -45 -7 -2 -2 0 -29 3 -59 10 -75 24 -82 118 -63 40 9 101 18 137 21 36
3 81 8 100 11 19 2 112 6 205 7 l170 3 86 -33 c47 -17 92 -32 99 -32 17 0 154
-62 158 -72 2 -5 9 -8 16 -8 18 0 88 -62 162 -141 94 -103 176 -314 245 -632
10 -49 21 -92 24 -97 3 -5 8 -22 10 -37 5 -42 54 -191 65 -198 5 -3 11 -1 15
5 11 18 22 11 28 -18 3 -16 15 -39 26 -53 20 -23 22 -23 35 -5 16 20 19 88 5
125 -16 41 -24 159 -22 321 3 172 8 231 26 305 6 28 12 55 12 60 1 16 55 165
80 221 58 128 144 225 327 367 12 10 43 30 68 43 25 13 61 34 80 46 19 11 73
37 120 56 47 20 87 39 90 42 10 13 268 81 310 82 33 0 48 6 66 27 23 26 32 61
15 61 -5 0 -11 9 -14 21 -5 17 -9 19 -26 9 -12 -6 -49 -15 -84 -20 -34 -5 -84
-14 -112 -20 -43 -10 -171 -8 -315 5 -42 4 -104 16 -125 25 -124 50 -203 80
-213 80 -7 0 -12 5 -12 10 0 6 -8 10 -19 10 -10 0 -24 7 -31 15 -7 8 -17 15
-23 15 -14 0 -142 100 -202 157 -60 58 -78 80 -105 130 -11 21 -24 45 -29 53
-24 41 -121 283 -121 302 0 6 -6 24 -13 41 -23 53 -80 235 -83 263 -1 14 -5
29 -9 32 -10 11 -87 8 -90 -3z m100 -210 c15 -44 33 -104 41 -134 8 -30 21
-68 28 -85 8 -17 22 -58 31 -91 10 -33 23 -71 28 -85 6 -14 11 -27 11 -30 5
-24 43 -111 60 -135 32 -47 32 -47 78 -100 131 -152 188 -188 413 -264 145
-48 190 -59 292 -67 43 -4 80 -8 82 -10 4 -4 1 -5 -93 -28 -38 -10 -90 -28
-115 -42 -25 -13 -51 -24 -58 -24 -6 0 -19 -8 -28 -17 -10 -9 -30 -24 -45 -32
-97 -54 -330 -337 -330 -401 0 -10 -4 -20 -8 -22 -10 -4 -62 -165 -62 -191 0
-10 -5 -27 -10 -37 -21 -38 -58 -308 -61 -435 -1 -40 -2 -45 -9 -25 -16 50
-48 176 -55 215 -14 84 -94 319 -120 355 -6 8 -17 28 -25 44 -16 32 -131 151
-201 209 -100 81 -270 154 -379 162 -41 3 -93 7 -115 10 -129 15 -186 16 -306
6 -74 -6 -150 -14 -169 -17 -50 -8 -26 10 35 26 41 11 152 53 280 105 11 5 22
9 25 10 10 3 195 95 210 104 8 5 59 35 113 66 91 53 153 106 243 208 30 33 94
155 94 177 0 6 11 42 25 81 46 133 66 253 67 404 1 77 -2 151 -6 165 -6 17 -5
22 2 15 6 -5 22 -46 37 -90z"/>
<path d="M17909 9066 c-2 -2 -44 -6 -94 -10 -209 -15 -242 -18 -314 -29 l-76
-12 -3 -37 c-4 -46 -7 -45 198 -52 150 -5 267 -17 360 -36 25 -5 86 -17 135
-26 141 -25 383 -85 408 -101 6 -4 30 -15 52 -23 66 -25 177 -88 220 -125 22
-19 49 -35 61 -35 12 0 27 -7 34 -15 16 -20 46 -19 54 1 3 8 -5 34 -19 57 -13
23 -41 73 -61 111 -47 86 -136 175 -259 261 l-95 67 -299 4 c-164 2 -300 2
-302 0z"/>
<path d="M1323 8914 c-22 -10 -14 -34 15 -45 15 -7 37 -16 49 -22 16 -7 26 -7
38 3 8 7 23 9 32 5 49 -19 187 -55 211 -55 15 0 32 -4 37 -9 6 -4 38 -14 73
-21 38 -8 71 -21 85 -35 20 -21 137 -62 272 -95 82 -20 139 -41 155 -55 8 -7
34 -18 57 -24 56 -15 438 -211 498 -256 67 -50 223 -221 273 -300 15 -22 38
-56 52 -75 25 -33 100 -192 100 -210 0 -5 5 -21 12 -37 6 -15 12 -33 13 -39 2
-6 11 -38 20 -70 40 -136 57 -216 70 -334 4 -30 8 -57 10 -60 2 -3 6 -34 9
-70 4 -36 11 -103 16 -150 18 -150 27 -434 16 -505 -2 -11 -6 -47 -10 -80 -4
-33 -12 -73 -16 -90 -5 -16 -12 -58 -15 -93 -8 -75 -28 -147 -48 -170 -31 -36
-136 -212 -185 -312 -42 -86 -120 -284 -138 -350 -2 -8 -20 -82 -40 -165 l-36
-150 5 -250 c5 -253 14 -328 63 -520 31 -120 97 -291 135 -348 21 -32 39 -61
39 -64 0 -6 70 -112 88 -134 7 -8 41 -51 76 -95 68 -86 75 -91 222 -173 40
-22 188 -84 256 -107 128 -43 279 -48 448 -15 102 21 132 27 235 51 58 14 155
48 170 59 5 5 41 21 79 36 78 30 228 137 323 230 34 33 83 80 110 105 81 75
110 164 75 230 -11 19 -40 49 -67 67 -40 28 -56 33 -104 33 -62 0 -134 -21
-167 -48 -11 -9 -42 -53 -68 -97 -55 -91 -92 -128 -223 -220 -110 -79 -219
-126 -368 -160 -96 -23 -274 -23 -338 -1 -164 56 -426 254 -476 361 -12 25
-25 45 -29 45 -8 0 -56 147 -78 235 -4 17 -9 39 -12 50 -8 34 -8 327 1 383 5
30 15 77 23 105 9 29 22 80 30 114 14 61 54 181 79 238 7 17 28 66 45 110 78
191 119 265 257 459 43 59 83 116 88 125 39 63 250 286 345 365 112 92 117 94
221 101 104 7 257 37 334 67 59 22 243 115 265 133 8 7 29 19 45 27 65 33 193
108 260 152 39 25 79 46 89 46 43 0 234 -130 337 -229 51 -50 88 -129 109
-236 18 -93 20 -107 26 -321 6 -190 5 -216 -22 -354 -34 -184 -81 -313 -148
-413 -45 -67 -53 -121 -28 -169 17 -31 62 -58 97 -58 30 0 80 24 92 44 4 8 65
74 136 148 70 74 142 155 160 179 129 172 154 210 254 389 70 125 123 234 123
252 0 6 8 22 19 36 30 42 61 158 61 226 0 34 -7 86 -15 114 -30 101 -145 270
-213 314 -106 68 -133 74 -182 43 -21 -13 -41 -33 -45 -44 -7 -25 3 -69 20
-79 7 -4 22 -33 33 -65 19 -49 21 -74 18 -185 -2 -84 -8 -141 -18 -167 -17
-42 -22 -38 -32 25 -11 74 -39 175 -57 212 -5 10 -9 23 -9 28 0 6 -28 51 -62
101 -95 139 -285 308 -415 369 -29 14 -52 28 -53 33 0 4 17 30 38 58 34 46 39
50 67 43 44 -10 218 -11 233 0 6 4 12 16 12 25 0 12 10 18 35 19 86 6 113 44
53 75 -30 14 -31 17 -13 22 11 3 33 30 49 58 32 58 61 104 118 189 21 31 38
60 38 65 0 4 11 25 25 45 23 35 26 36 57 26 18 -6 39 -12 45 -14 12 -3 -12
-54 -68 -149 -46 -76 -62 -135 -36 -135 21 0 34 13 59 57 69 123 110 193 116
197 9 6 103 -14 117 -24 6 -4 37 -15 70 -25 33 -10 66 -23 73 -28 9 -7 17 -6
24 1 7 7 20 12 30 12 11 0 18 7 18 19 0 18 -36 40 -115 72 -32 12 -216 67
-255 75 -19 4 -39 9 -45 10 -5 2 -62 16 -125 33 -63 16 -128 34 -145 40 -115
40 -534 71 -695 50 -41 -5 -104 -12 -140 -15 -36 -3 -67 -7 -71 -9 -3 -2 -21
-7 -40 -10 -67 -11 -166 -49 -299 -113 -74 -36 -139 -64 -144 -63 -5 1 -18 -7
-30 -17 -25 -23 -142 -102 -151 -102 -19 0 -177 -135 -281 -242 -151 -154
-204 -219 -289 -357 -5 -9 -12 -18 -15 -21 -12 -12 -86 -129 -110 -175 -15
-27 -46 -85 -68 -128 -23 -42 -42 -82 -42 -87 0 -6 -9 -29 -19 -53 -11 -23
-31 -78 -46 -122 -15 -44 -33 -93 -40 -110 -7 -16 -28 -70 -46 -120 -18 -49
-40 -99 -50 -110 -9 -11 -26 -42 -38 -69 -17 -39 -24 -47 -38 -41 -10 4 -28 7
-40 7 -12 -1 -24 2 -27 6 -5 8 30 132 64 227 20 53 58 206 65 260 8 56 15 128
19 200 3 44 9 121 13 170 10 115 10 398 1 495 -11 101 -15 130 -37 235 -11 50
-16 94 -11 99 7 7 -15 90 -40 151 -4 11 -13 36 -20 55 -7 19 -18 49 -25 65 -7
17 -16 41 -20 55 -8 27 -54 116 -86 165 -10 17 -22 37 -26 45 -6 14 -52 79
-63 90 -3 3 -21 25 -40 50 -19 25 -41 50 -50 57 -8 6 -48 43 -89 82 -41 39
-79 71 -85 71 -5 0 -31 18 -57 40 -26 22 -52 40 -58 40 -6 0 -11 5 -11 10 0 6
-5 10 -10 10 -6 0 -21 9 -33 21 -15 14 -31 19 -52 16 -20 -3 -63 10 -132 39
-56 24 -110 44 -120 44 -11 0 -23 4 -28 9 -12 12 -128 56 -220 83 -38 11 -113
33 -165 49 -52 16 -110 32 -127 35 -18 4 -33 10 -33 15 0 5 -10 9 -23 9 -13 0
-27 3 -31 7 -8 8 -11 9 -86 24 -30 6 -62 14 -70 17 -23 8 -23 8 -55 16 -16 5
-64 18 -105 31 -78 24 -176 38 -197 29z m4522 -1244 c3 -6 -2 -22 -13 -38 -40
-57 -54 -93 -42 -108 7 -7 18 -10 25 -6 17 9 80 101 89 128 6 19 10 20 69 11
34 -5 64 -11 66 -12 2 -2 -17 -35 -42 -72 -25 -37 -55 -87 -67 -111 -27 -51
-40 -61 -40 -29 0 49 -62 74 -76 30 -17 -51 -58 -154 -80 -201 -13 -29 -24
-55 -24 -57 0 -3 -16 -31 -37 -62 -54 -86 -152 -197 -248 -284 -38 -34 -269
-192 -340 -234 -19 -11 -74 -43 -122 -71 -104 -60 -194 -104 -214 -104 -8 0
-19 -4 -24 -8 -47 -41 -453 -109 -430 -72 4 6 -16 10 -52 11 -55 0 -149 15
-238 38 -22 5 -53 12 -70 15 -86 15 -125 30 -125 47 0 28 22 69 37 69 12 0 17
13 14 33 -1 4 15 1 35 -8 19 -8 59 -17 87 -21 29 -4 58 -12 66 -18 28 -22 379
-12 481 15 55 14 293 88 315 98 138 62 281 149 400 246 62 50 305 293 335 334
12 17 28 31 35 31 8 0 26 20 40 44 14 24 33 50 41 57 42 34 81 158 55 173 -5
3 -26 -1 -46 -10 -32 -13 -36 -18 -31 -39 9 -37 -44 -142 -100 -198 -48 -48
-48 -48 -102 -43 -30 3 -56 7 -58 8 -2 2 13 23 32 47 18 24 34 49 34 55 0 7
19 40 43 75 23 35 47 72 53 82 6 10 18 27 27 37 10 10 17 21 17 25 0 20 64 96
83 99 57 8 136 7 142 -2z m-245 -10 c0 -3 -9 -16 -20 -30 -11 -14 -20 -28 -20
-32 0 -4 -20 -34 -43 -65 -24 -32 -77 -109 -118 -171 -71 -109 -75 -113 -104
-109 -17 3 -45 11 -62 18 l-32 14 34 55 c19 30 39 60 45 67 5 7 10 16 10 21 0
5 14 27 31 48 17 22 51 71 76 109 25 39 49 72 53 75 5 3 40 5 79 5 39 0 71 -2
71 -5z m-230 -5 c0 -12 -82 -139 -92 -143 -5 -2 -8 -8 -8 -13 0 -5 -24 -40
-52 -78 -29 -39 -61 -81 -70 -94 l-17 -24 -73 17 c-40 9 -73 21 -73 26 0 9 57
97 127 196 69 97 74 101 178 111 65 7 80 7 80 2z m807 -46 c18 -6 35 -14 38
-19 3 -5 -14 -40 -38 -77 -24 -38 -61 -97 -82 -133 -106 -180 -129 -211 -150
-206 -11 2 -41 8 -67 11 -27 4 -48 8 -48 9 0 7 45 87 73 129 140 213 172 259
182 265 6 4 15 15 18 26 5 12 13 16 25 11 9 -4 31 -11 49 -16z m-1150 -86
c-24 -32 -60 -83 -80 -114 l-37 -56 -49 10 -49 9 49 77 c27 42 49 81 49 86 0
12 154 64 158 54 2 -4 -17 -34 -41 -66z m-227 -60 c-1 -5 -16 -26 -35 -48 -31
-36 -36 -39 -55 -27 -11 7 -26 10 -33 6 -19 -9 35 35 68 57 31 19 55 25 55 12z
m-245 -213 c43 -11 135 -30 175 -36 14 -2 69 -13 123 -24 54 -11 113 -23 130
-26 18 -3 82 -15 142 -26 160 -29 227 -38 250 -32 15 5 10 -4 -17 -32 l-37
-37 -63 16 c-106 28 -168 35 -287 36 -111 0 -133 -4 -371 -63 -72 -18 -305
-118 -320 -137 -3 -3 -21 -14 -40 -24 -51 -26 -244 -157 -253 -172 -4 -7 -14
-13 -21 -13 -8 0 -19 -7 -26 -16 -8 -8 -23 -20 -34 -26 -20 -11 -20 -10 -6 8
8 10 21 25 28 32 6 7 12 19 12 27 0 7 11 20 25 29 14 10 31 29 38 44 39 90
171 237 297 331 41 30 91 68 110 84 51 40 53 42 75 55 24 14 21 14 70 2z"/>
<path d="M11970 8531 c0 -12 -4 -29 -9 -39 -6 -9 -12 -29 -16 -44 -4 -20 -13
-30 -33 -34 -15 -4 -31 -10 -37 -14 -5 -4 -53 -23 -105 -43 -154 -57 -328
-143 -305 -150 28 -9 103 -18 150 -18 90 0 235 -40 267 -73 19 -21 20 -48 4
-131 -3 -11 -5 -23 -5 -26 -1 -8 -47 -18 -111 -25 -50 -6 -91 -17 -165 -44
-27 -10 -90 -33 -140 -51 -49 -17 -137 -50 -195 -73 l-104 -41 44 -7 c25 -4
63 -10 85 -13 22 -3 65 -11 95 -17 78 -16 75 -16 175 -27 50 -5 108 -16 130
-24 22 -8 57 -17 78 -21 25 -5 37 -12 38 -24 2 -34 -3 -78 -12 -115 -10 -37
-12 -38 -42 -31 -18 4 -45 12 -62 20 -33 14 -99 31 -275 70 -210 47 -254 55
-379 68 l-124 12 -139 -68 c-76 -37 -183 -97 -238 -133 -54 -36 -110 -69 -125
-75 -14 -5 -52 -27 -83 -47 -32 -21 -65 -42 -73 -48 -100 -63 -120 -84 -156
-159 -24 -52 -31 -63 -69 -126 -12 -19 -24 -45 -28 -57 -6 -20 -5 -21 36 -11
24 5 52 14 63 19 11 5 66 20 122 34 56 14 120 32 143 40 23 8 52 13 64 10 11
-2 93 -7 181 -10 253 -9 480 -26 652 -50 95 -13 107 -18 195 -71 51 -32 102
-66 114 -76 11 -10 23 -18 27 -18 7 0 79 -45 102 -63 6 -4 51 -34 100 -66 50
-32 104 -70 120 -85 17 -14 36 -26 43 -26 6 0 12 -5 12 -10 0 -6 11 -16 25
-22 14 -6 25 -14 25 -18 0 -4 -36 -32 -79 -63 -44 -32 -87 -64 -96 -73 -15
-15 -22 -11 -88 54 -62 61 -97 91 -177 155 -8 7 -44 35 -80 62 -36 27 -85 67
-110 88 -60 51 -65 55 -102 77 -28 16 -168 42 -348 64 -19 2 -85 14 -147 25
-62 12 -134 23 -160 25 -26 2 -86 7 -133 11 -47 4 -90 11 -95 16 -6 4 -39 1
-75 -7 -36 -8 -110 -23 -165 -34 -55 -11 -140 -31 -190 -45 -49 -13 -148 -41
-220 -60 -71 -19 -182 -49 -245 -66 -138 -37 -327 -95 -355 -109 -11 -5 -87
-30 -170 -55 -82 -26 -159 -50 -170 -54 -40 -17 -162 -59 -218 -75 -46 -14
-70 -29 -116 -74 -31 -31 -78 -74 -104 -95 -52 -43 -169 -157 -204 -199 -11
-14 -26 -52 -33 -83 -6 -31 -23 -89 -36 -128 -14 -40 -24 -73 -23 -75 2 -6
-14 -68 -21 -77 -4 -5 -10 -26 -14 -45 -3 -19 -11 -62 -16 -95 -6 -33 -13 -82
-16 -109 -3 -28 -6 -55 -7 -60 -1 -6 18 -12 43 -14 43 -3 47 -1 90 50 25 29
60 68 77 87 18 18 33 36 33 41 0 16 81 60 122 66 24 3 52 7 63 9 11 2 65 10
120 19 55 9 111 18 125 21 14 3 54 7 90 9 36 3 73 8 83 12 12 4 53 -9 120 -41
217 -102 313 -149 349 -171 20 -13 48 -26 62 -30 14 -3 40 -23 58 -44 46 -54
140 -186 158 -223 14 -29 21 -32 90 -44 41 -7 89 -14 105 -17 17 -3 82 -12
145 -21 63 -8 130 -20 148 -26 18 -6 38 -9 45 -6 38 14 147 36 183 37 17 0 43
9 56 20 14 10 28 17 31 14 3 -3 11 -2 18 2 7 4 22 9 33 10 77 8 242 39 247 46
3 4 55 20 115 33 176 41 275 65 339 81 33 8 87 21 120 29 33 7 96 22 140 34
73 18 153 33 260 48 47 6 87 28 101 53 5 10 54 107 109 216 112 221 196 380
232 436 12 21 23 40 23 44 0 3 10 20 23 37 12 18 27 41 33 52 6 11 22 40 36
65 14 25 49 88 78 140 70 126 129 218 162 255 16 17 28 40 28 51 0 20 39 152
59 199 4 11 15 45 24 75 8 30 27 94 41 141 14 47 26 91 26 97 0 7 4 20 10 30
9 16 47 120 55 152 2 8 13 40 25 70 37 99 69 194 75 225 3 17 12 53 20 80 8
28 20 69 27 93 10 35 10 45 -1 51 -7 5 -75 6 -151 3 l-138 -5 -69 73 c-37 40
-117 116 -178 169 -60 53 -153 138 -205 190 -52 52 -110 108 -127 124 -31 27
-33 28 -33 8z"/>
<path d="M15120 8513 c-14 -2 -68 -10 -120 -18 -52 -8 -128 -17 -169 -20 -41
-3 -78 -8 -82 -10 -7 -5 -29 -8 -224 -25 -97 -9 -145 -15 -270 -35 -64 -10
-137 -24 -153 -29 -24 -7 -259 -38 -307 -40 -46 -3 -46 -3 -25 -136 7 -41 12
-101 12 -133 0 -31 5 -60 10 -63 6 -4 177 -7 382 -8 204 -1 376 -4 382 -8 6
-4 80 -8 164 -9 85 -2 177 -6 205 -11 27 -4 110 -10 184 -13 134 -5 134 -5
171 -38 20 -17 79 -66 130 -107 51 -41 118 -98 149 -126 31 -27 72 -63 91 -78
59 -48 162 -139 194 -172 35 -35 202 -186 346 -313 52 -46 130 -116 174 -155
43 -39 88 -78 100 -86 24 -17 54 -43 126 -110 110 -103 234 -200 255 -200 11
0 3 62 -20 150 -14 52 -28 106 -31 120 -3 14 -14 60 -25 103 -33 131 -61 260
-64 302 -2 22 -15 71 -29 109 -17 46 -22 74 -16 85 18 33 162 157 232 200 70
42 98 101 42 87 -14 -4 -24 -2 -24 4 0 5 -7 10 -16 10 -15 0 -60 18 -181 71
-24 11 -47 19 -53 19 -10 0 -121 53 -676 326 -104 51 -207 105 -228 119 -21
14 -52 29 -70 32 -17 3 -62 23 -101 43 -38 20 -96 47 -127 60 -32 13 -58 28
-58 32 0 5 -12 14 -27 21 -16 7 -40 20 -55 30 -25 17 -134 28 -198 20z"/>
<path d="M9810 8489 c-41 -10 -83 -19 -92 -19 -35 0 -88 -34 -88 -57 0 -28 5
-31 82 -42 96 -13 304 -91 353 -131 8 -6 18 -9 23 -6 5 3 17 -3 27 -14 10 -11
27 -20 37 -20 29 0 33 28 7 54 -29 28 -69 76 -69 82 0 6 -41 55 -100 116 -62
66 -66 66 -180 37z m145 -94 c29 -26 43 -45 35 -45 -9 0 -20 4 -25 9 -8 7 -74
33 -170 67 -16 5 -9 9 30 19 57 13 63 11 130 -50z"/>
<path d="M2413 8348 c-22 -29 -64 -158 -93 -285 -38 -167 6 -550 82 -722 32
-72 70 -145 84 -162 8 -8 14 -23 14 -32 0 -9 4 -17 9 -17 5 0 14 -13 21 -29 6
-16 18 -32 26 -35 8 -3 14 -12 14 -19 0 -16 96 -107 180 -172 28 -22 61 -48
73 -58 68 -58 284 -190 359 -221 118 -47 151 -50 146 -13 -3 21 -30 39 -119
76 -19 8 -66 35 -106 60 -40 25 -111 68 -158 96 -47 27 -109 72 -137 98 -28
26 -57 51 -63 55 -20 12 -117 135 -160 203 -45 73 -66 117 -84 174 -7 22 -21
58 -31 80 -23 51 -32 75 -37 100 -1 11 -7 29 -12 40 -16 34 -32 136 -38 241
-6 107 17 316 42 385 8 20 12 39 9 42 -6 6 17 60 30 69 14 9 -10 58 -28 58 -7
0 -18 -6 -23 -12z"/>
<path d="M2562 8215 c-48 -60 -56 -419 -12 -560 11 -38 25 -79 29 -90 5 -11
16 -45 26 -75 10 -30 22 -61 28 -67 5 -7 6 -13 3 -13 -4 0 -1 -10 6 -22 7 -13
13 -25 13 -28 0 -3 8 -21 18 -40 17 -34 33 -55 103 -133 19 -21 34 -42 34 -46
0 -28 322 -301 355 -301 3 0 41 -18 84 -39 58 -29 82 -36 90 -28 20 20 11 36
-31 58 -51 26 -239 142 -288 179 -87 64 -280 291 -280 329 0 6 -4 19 -10 29
-22 37 -73 188 -86 252 -3 14 -8 34 -11 45 -10 29 -12 44 -18 100 -3 28 -10
85 -16 128 -13 85 -6 266 10 310 14 37 14 37 -8 37 -11 0 -28 -11 -39 -25z"/>
<path d="M11135 8102 c-22 -3 -51 -15 -105 -42 -19 -10 -46 -21 -60 -25 -14
-4 -90 -38 -169 -76 -79 -38 -148 -69 -155 -69 -20 -1 -179 -85 -178 -94 1 -5
59 -11 129 -13 71 -1 146 -5 168 -7 22 -2 69 -7 105 -11 l65 -7 180 90 c99 50
207 102 240 116 33 15 74 33 90 41 17 7 39 16 50 20 16 6 9 11 -35 25 -30 10
-57 17 -60 15 -3 -2 -36 3 -73 11 -99 20 -169 30 -192 26z"/>
<path d="M13127 7985 l-169 -10 -14 -40 c-8 -22 -17 -60 -20 -85 -2 -25 -9
-58 -14 -75 -5 -16 -11 -41 -14 -55 -3 -14 -11 -47 -19 -75 -8 -27 -22 -81
-32 -120 -10 -38 -21 -79 -25 -90 -10 -24 -41 -130 -44 -147 -1 -7 -12 -44
-23 -83 -12 -38 -33 -120 -47 -182 -15 -61 -33 -124 -41 -140 -8 -15 -15 -33
-15 -39 0 -6 -9 -23 -20 -37 -11 -14 -32 -56 -46 -94 -14 -37 -72 -162 -129
-278 -109 -223 -138 -285 -150 -325 -10 -33 -81 -198 -100 -232 -8 -14 -15
-31 -15 -37 0 -14 -168 -354 -215 -436 -19 -33 -36 -64 -38 -69 -1 -4 -32 -14
-67 -21 -93 -18 -284 -67 -570 -145 -58 -16 -132 -36 -165 -44 -33 -8 -80 -22
-105 -30 -96 -31 -151 -47 -177 -50 -39 -6 -158 -33 -223 -52 -30 -9 -62 -17
-70 -18 -8 -2 -33 -8 -55 -14 -22 -6 -89 -22 -150 -36 -60 -14 -141 -33 -178
-42 -39 -9 -80 -13 -95 -9 -15 4 -38 9 -52 11 -14 3 -61 11 -105 19 -78 14
-309 45 -404 53 -40 4 -84 56 -133 158 -39 82 -55 104 -79 114 -16 7 -46 26
-66 41 -20 16 -42 29 -49 29 -8 0 -14 4 -14 8 0 4 -12 13 -27 19 -39 17 -168
89 -231 129 -44 29 -59 33 -95 29 -23 -2 -69 -7 -102 -10 -106 -9 -169 -16
-205 -22 -50 -8 -59 -9 -115 -18 -27 -4 -56 -13 -64 -19 -14 -11 -55 -69 -81
-115 -8 -15 -28 -43 -43 -62 l-28 -34 -90 9 c-75 8 -92 7 -100 -5 -21 -33 -10
-46 44 -53 262 -33 507 -125 587 -220 14 -17 35 -39 48 -50 12 -11 22 -23 22
-28 0 -5 5 -14 10 -21 6 -7 21 -25 35 -42 29 -35 80 -189 99 -304 15 -89 17
-92 86 -117 25 -9 73 -29 108 -45 35 -16 71 -29 82 -29 10 0 21 -4 25 -9 3 -5
22 -15 43 -21 20 -6 46 -15 57 -20 55 -24 195 -78 235 -90 25 -7 50 -17 55
-21 6 -4 23 -10 39 -13 15 -3 46 -11 69 -19 23 -8 60 -20 82 -27 22 -7 85 -34
140 -60 55 -25 122 -52 149 -59 27 -7 54 -19 60 -27 6 -7 35 -22 65 -33 30
-10 60 -26 67 -35 10 -15 21 -13 109 14 54 16 104 30 111 30 8 0 22 4 32 9 28
14 87 31 108 31 11 0 24 4 30 8 5 5 34 14 64 21 30 8 60 17 65 21 11 8 57 18
114 26 21 3 45 16 60 33 42 46 183 156 231 179 14 7 52 30 85 52 33 22 67 43
75 47 8 3 17 9 20 12 3 4 22 15 43 26 20 11 37 22 37 26 0 3 12 11 28 18 15 7
52 30 83 51 31 21 75 49 98 61 24 13 68 38 99 56 32 17 73 40 92 49 19 10 60
32 90 50 30 17 120 65 200 106 264 137 285 149 296 163 6 8 15 15 19 15 4 0
21 6 38 14 18 7 44 18 58 24 17 7 28 20 32 39 3 15 21 87 41 158 20 72 52 207
72 300 19 94 39 181 45 195 5 14 11 34 14 45 2 11 16 65 30 120 14 55 35 141
46 190 43 193 50 222 59 270 6 28 14 68 19 90 11 52 58 189 81 240 11 22 35
79 54 128 20 48 52 125 72 172 19 47 36 96 37 111 2 25 32 59 288 321 54 57
99 107 99 113 0 5 4 10 9 10 5 0 31 23 58 51 26 29 56 59 66 68 9 8 17 19 17
23 0 4 14 22 31 40 16 18 45 57 62 86 17 28 37 52 45 52 21 0 32 47 25 111
l-6 61 -246 -4 c-135 -2 -322 -7 -414 -13z"/>
<path d="M14148 7913 c-10 -22 -21 -56 -24 -75 -3 -18 -9 -42 -14 -53 -4 -11
-15 -54 -24 -95 -17 -78 -30 -109 -41 -98 -8 7 -7 153 0 188 17 75 25 125 25
146 0 21 -5 24 -39 24 -22 0 -42 -4 -45 -8 -8 -14 -21 -248 -21 -376 l1 -119
34 -28 c40 -34 70 -25 70 20 0 16 6 34 14 40 13 11 19 31 39 117 2 7 7 18 13
25 11 16 36 67 58 122 9 20 22 52 30 70 45 101 56 130 52 135 -3 2 -29 5 -57
6 -52 1 -52 1 -71 -41z"/>
<path d="M14545 7873 c-25 -32 -58 -74 -74 -93 -15 -19 -41 -55 -56 -80 -16
-25 -41 -59 -55 -76 -14 -17 -34 -46 -45 -65 -11 -19 -29 -48 -40 -65 -57 -90
-86 -146 -83 -161 4 -23 32 -28 51 -8 9 8 22 15 29 15 7 0 26 17 43 38 115
146 363 348 437 357 10 1 26 9 36 18 10 9 23 17 28 17 6 0 32 14 60 32 27 18
65 41 84 51 44 25 85 57 74 58 -5 0 -22 2 -39 4 -115 11 -106 14 -226 -67 -63
-42 -123 -85 -134 -95 -20 -18 -42 -34 -114 -82 -32 -22 -34 -22 -21 -4 39 54
128 170 141 183 8 9 24 30 37 48 l23 32 -55 0 c-55 0 -55 0 -101 -57z"/>
<path d="M15357 7764 c-3 -3 -49 -8 -103 -10 -160 -7 -253 -26 -276 -59 -11
-15 -2 -21 70 -55 75 -35 132 -71 132 -83 0 -14 143 -127 160 -127 5 0 14 -8
19 -19 17 -31 88 -61 122 -51 17 5 37 6 45 3 47 -18 -38 72 -151 158 -153 117
-194 154 -181 161 19 11 103 21 178 22 38 1 68 4 68 8 0 8 -59 58 -69 58 -4 0
-10 -3 -14 -6z"/>
<path d="M10364 7633 c-6 -4 -14 -20 -17 -34 -4 -14 -17 -41 -30 -60 -56 -82
-71 -117 -58 -133 15 -17 29 -12 73 27 53 46 162 117 240 155 65 32 68 42 11
42 -26 0 -84 3 -128 6 -44 3 -85 2 -91 -3z"/>
<path d="M9378 7605 c-2 -1 -34 -5 -73 -9 -38 -4 -100 -14 -136 -23 -64 -15
-67 -17 -105 -77 -48 -75 -150 -281 -169 -344 -10 -33 3 -89 22 -96 11 -4 35
12 77 52 34 32 88 73 121 92 33 19 62 37 63 42 2 4 9 8 16 8 6 0 27 13 46 28
63 51 210 133 270 150 59 17 132 31 190 37 77 8 87 12 94 40 8 30 -8 57 -46
80 -24 14 -60 18 -198 20 -93 1 -170 2 -172 0z m275 -60 c20 -4 37 -12 37 -17
0 -6 -9 -8 -21 -5 -28 7 -229 -44 -304 -78 -16 -7 -56 -25 -88 -39 -31 -15
-93 -51 -137 -81 -44 -30 -80 -53 -80 -51 0 2 14 34 31 72 17 38 39 87 49 109
17 37 24 42 82 59 35 9 71 21 81 25 26 9 305 14 350 6z"/>
<path d="M16821 7509 c-29 -24 -23 -31 49 -54 30 -9 70 -23 87 -31 18 -8 50
-21 70 -28 119 -42 462 -211 573 -281 115 -73 258 -170 255 -173 -1 -2 -25 8
-51 22 -27 14 -60 30 -74 36 -14 5 -32 14 -40 20 -32 21 -189 89 -231 100 -24
6 -86 27 -137 46 -51 19 -105 34 -121 34 -15 0 -31 3 -35 8 -4 4 -11 7 -14 8
-9 1 -46 10 -152 39 -47 13 -112 27 -144 30 -33 4 -70 11 -82 15 -21 8 -21 7
-12 -30 10 -40 26 -49 98 -55 14 -2 44 -10 68 -18 23 -9 45 -16 47 -16 8 0
117 -32 140 -41 11 -5 105 -35 208 -69 170 -55 251 -88 417 -171 88 -43 182
-95 227 -123 24 -15 45 -27 47 -27 3 0 25 -13 48 -29 36 -25 45 -28 56 -17 12
12 11 18 -3 39 -9 15 -14 30 -11 35 5 9 -168 176 -203 196 -9 5 -57 40 -108
78 -51 37 -107 76 -125 86 -18 10 -59 35 -90 55 -61 39 -238 127 -540 265 -49
23 -88 39 -88 37 0 -2 -21 5 -46 15 -55 24 -53 24 -83 -1z"/>
<path d="M15760 7406 c0 -8 18 -34 40 -57 22 -24 40 -47 40 -51 0 -5 11 -26
25 -48 14 -22 25 -45 25 -52 0 -7 16 -35 35 -62 19 -27 35 -55 35 -63 0 -7 4
-13 8 -13 20 0 122 -235 122 -280 0 -11 4 -20 9 -20 23 0 -9 156 -61 300 -48
137 -96 216 -175 289 -74 69 -103 85 -103 57z"/>
<path d="M14795 7335 c-38 -7 -90 -18 -115 -25 -25 -7 -52 -14 -60 -15 -26 -4
-75 -18 -85 -24 -17 -11 -76 -29 -138 -41 -77 -15 -174 -54 -189 -74 -15 -21
5 -37 42 -35 21 2 44 -2 52 -9 8 -6 63 -14 124 -17 60 -3 129 -8 154 -10 25
-3 77 -7 115 -9 39 -2 93 -7 120 -10 63 -8 123 -14 200 -22 l60 -6 20 39 c11
21 21 41 23 46 2 4 -13 7 -34 7 -20 0 -65 4 -98 9 -160 25 -219 32 -297 36
-46 2 -111 7 -144 11 l-60 7 50 13 c28 7 165 32 305 54 198 32 278 41 355 39
84 -2 105 0 129 16 l29 19 -24 7 c-44 12 -460 8 -534 -6z"/>
<path d="M15440 7296 c-50 -14 -128 -60 -148 -87 -7 -10 -37 -43 -67 -74 -30
-30 -57 -66 -61 -80 -3 -14 -10 -25 -15 -25 -5 0 -9 -7 -9 -15 0 -8 -9 -30
-20 -49 -20 -36 -52 -146 -43 -146 3 0 1 -6 -5 -12 -6 -7 -13 -36 -16 -64 -3
-28 -8 -57 -10 -65 -3 -8 -8 -57 -11 -109 -4 -52 -7 -101 -7 -107 -1 -7 -3
-13 -5 -13 -8 0 -43 35 -43 44 0 5 -15 32 -34 60 -18 28 -48 78 -65 110 -82
154 -261 232 -400 173 -18 -8 -72 -50 -120 -93 -77 -69 -96 -94 -158 -204 -74
-131 -99 -198 -109 -298 -9 -84 0 -121 44 -170 68 -78 165 -63 232 36 19 29
55 67 80 85 40 29 52 32 114 32 65 0 70 -2 90 -29 12 -16 39 -52 62 -80 22
-28 49 -67 60 -86 10 -19 21 -37 24 -40 10 -9 44 -64 59 -96 9 -17 32 -50 51
-74 38 -46 43 -54 94 -157 34 -66 100 -171 116 -183 18 -13 93 -136 139 -227
29 -56 66 -122 84 -145 36 -46 207 -322 207 -333 0 -3 28 -51 63 -105 34 -54
75 -120 90 -147 15 -26 46 -78 68 -115 59 -101 139 -341 139 -418 0 -19 -6
-51 -13 -70 -14 -42 -76 -142 -94 -153 -24 -15 -43 -66 -43 -114 0 -57 47
-145 92 -171 26 -15 31 -15 83 2 30 11 63 25 72 33 10 8 47 32 83 55 36 23 88
56 115 74 298 191 371 237 403 252 20 11 66 35 100 55 35 21 68 37 73 37 4 0
24 14 44 31 28 25 35 38 35 68 0 94 -114 187 -235 192 -5 0 -33 -3 -60 -6 -41
-6 -65 -2 -123 18 -40 14 -84 33 -98 42 -44 29 -170 205 -191 268 -3 9 -10 17
-15 17 -5 0 -14 12 -21 28 -7 15 -43 74 -82 130 -38 57 -79 118 -90 135 -11
18 -27 41 -37 51 -10 11 -18 24 -18 29 0 5 -15 30 -33 56 -19 25 -47 72 -63
104 -15 31 -31 57 -35 57 -4 0 -10 12 -13 26 -4 15 -17 41 -30 58 -12 17 -51
81 -86 141 -35 61 -77 130 -94 155 -17 25 -36 54 -42 65 -19 35 -86 149 -103
177 -9 14 -34 57 -56 95 -22 37 -45 77 -52 88 -62 103 -75 145 -75 233 -1 86
3 128 17 207 4 22 9 47 10 56 7 37 59 175 71 190 8 8 14 20 14 25 0 12 68 79
74 73 8 -9 60 -115 62 -127 7 -42 154 -222 181 -222 7 0 25 -8 40 -17 19 -13
48 -17 112 -18 76 0 91 3 131 27 25 14 61 40 80 58 l35 31 -1 107 c0 156 -14
226 -57 291 -14 20 -34 56 -47 80 -12 24 -26 49 -31 55 -5 6 -27 34 -49 63
-46 61 -125 118 -158 115 -13 -1 -42 11 -65 27 -51 34 -123 45 -187 27z"/>
<path d="M13925 6803 c-22 -3 -44 -8 -49 -13 -6 -6 24 -44 76 -97 47 -49 101
-106 120 -127 l35 -39 25 46 26 46 -35 40 c-19 23 -32 41 -29 41 3 0 26 -7 52
-16 43 -14 47 -14 59 3 8 10 10 21 6 26 -4 4 -54 23 -112 43 -57 20 -108 40
-113 45 -6 5 -12 8 -15 7 -4 -1 -24 -3 -46 -5z"/>
<path d="M16904 6622 c3 -15 10 -60 17 -100 7 -40 19 -81 28 -92 9 -10 25 -29
36 -42 36 -43 61 -82 99 -163 56 -118 63 -135 79 -195 8 -30 24 -86 34 -125
30 -104 69 -116 78 -24 3 24 7 53 10 64 2 11 7 58 10 105 4 47 8 99 10 115 5
47 -13 172 -30 205 -9 17 -22 30 -30 30 -8 0 -20 10 -26 23 -22 41 -161 157
-190 157 -5 0 -9 4 -9 9 0 5 -19 17 -42 27 -24 10 -51 22 -61 26 -16 7 -18 4
-13 -20z"/>
<path d="M13804 6220 c-17 -7 -23 -19 -27 -67 -11 -121 -48 -397 -62 -463 -3
-14 -10 -46 -15 -71 -5 -25 -20 -76 -34 -113 -27 -72 -33 -105 -13 -70 27 46
58 77 80 78 16 1 23 8 25 26 2 14 8 30 12 35 5 6 19 78 31 160 13 83 24 152
26 154 10 13 19 -27 43 -183 5 -32 11 -60 13 -62 9 -10 77 32 77 47 0 8 -9 51
-20 95 -60 244 -90 375 -90 391 0 32 -22 52 -46 43z"/>
<path d="M15272 6170 c4 -35 15 -64 35 -93 27 -37 59 -92 144 -246 14 -25 35
-62 47 -81 12 -19 26 -44 31 -55 5 -11 21 -35 35 -54 14 -19 26 -40 26 -47 0
-7 4 -14 9 -16 7 -3 48 -70 107 -177 10 -19 26 -43 35 -53 16 -18 17 -18 23 4
3 13 6 35 6 51 0 17 5 27 15 27 12 0 15 17 15 93 0 138 -23 265 -54 296 -14
13 -47 49 -73 79 -49 56 -156 164 -183 186 -64 51 -198 136 -216 136 -3 0 -4
-23 -2 -50z"/>
<path d="M14432 6066 c-17 -24 -27 -48 -23 -53 8 -8 95 -231 106 -270 5 -17
16 -25 46 -29 22 -4 42 -10 45 -15 2 -4 11 -6 19 -2 8 3 15 0 15 -6 0 -6 9
-11 21 -11 11 0 29 -4 39 -10 16 -8 19 -5 25 23 8 37 22 86 41 140 8 20 11 37
8 37 -4 0 -1 7 6 15 10 12 5 25 -27 72 -21 31 -44 58 -50 60 -5 2 -13 -13 -16
-34 -3 -21 -11 -74 -17 -118 -6 -44 -14 -84 -17 -88 -3 -5 -44 68 -91 162 -47
94 -89 171 -93 171 -4 0 -21 -20 -37 -44z"/>
<path d="M14198 5695 c-2 -2 -35 -9 -73 -15 -38 -6 -76 -17 -85 -23 -8 -7 -42
-25 -74 -42 -38 -19 -91 -61 -145 -115 -129 -128 -152 -159 -194 -275 -67
-181 -82 -535 -31 -720 8 -27 30 -113 50 -189 19 -76 40 -146 44 -155 5 -9 26
-52 46 -96 106 -233 168 -343 293 -510 87 -117 347 -351 444 -399 129 -64 242
-89 402 -90 114 0 141 4 215 27 124 40 197 79 267 144 126 118 208 251 244
393 20 79 39 243 34 287 -13 111 -74 242 -130 279 -58 38 -157 3 -200 -70 -43
-73 -43 -125 1 -236 29 -75 38 -113 41 -180 l5 -85 -36 -41 c-51 -59 -131
-109 -222 -139 -92 -30 -162 -31 -262 -4 -156 44 -352 200 -487 387 -48 67
-127 194 -123 197 103 72 270 232 335 322 102 139 218 377 275 563 55 178 46
409 -21 524 -39 67 -146 173 -189 187 -20 6 -41 15 -47 19 -5 4 -35 13 -65 20
-30 6 -77 18 -105 25 -44 12 -197 19 -207 10z m54 -257 c98 -29 193 -224 189
-388 -2 -81 -12 -200 -21 -245 -57 -290 -88 -356 -277 -593 -16 -19 -14 -21
-48 58 -15 36 -52 119 -82 185 -30 66 -63 149 -74 185 -10 36 -25 85 -33 110
-38 122 -49 198 -42 302 10 152 13 172 30 207 22 41 124 141 145 141 9 0 30 9
48 19 27 17 44 22 112 29 7 1 31 -3 53 -10z"/>
<path d="M13982 5263 l-30 -48 10 -125 c5 -68 8 -143 6 -165 l-3 -40 -17 30
-17 30 3 -61 c2 -42 10 -73 25 -97 21 -35 81 -87 99 -87 17 0 21 26 12 67 -5
22 -12 77 -16 124 -3 46 -9 86 -13 89 -8 6 -10 25 -15 198 -3 68 -6 126 -9
128 -2 3 -18 -17 -35 -43z"/>
<path d="M7400 5267 c-105 -41 -130 -57 -202 -128 -75 -75 -94 -132 -72 -211
21 -72 63 -103 130 -95 25 2 53 13 63 23 29 30 71 58 97 66 31 8 44 -14 51
-86 5 -52 -20 -215 -53 -336 -16 -59 -23 -96 -54 -264 -12 -59 -29 -145 -39
-190 -11 -44 -22 -106 -25 -137 -4 -31 -11 -72 -17 -90 -5 -19 -19 -79 -30
-134 -20 -101 -31 -151 -99 -440 -20 -88 -42 -185 -48 -215 -67 -331 -81 -375
-131 -432 -43 -48 -174 -124 -194 -111 -5 3 -23 6 -39 5 -53 -1 -100 -63 -91
-117 9 -51 20 -57 126 -70 19 -3 63 -12 98 -21 35 -8 102 -22 149 -29 47 -7
139 -27 205 -44 66 -16 138 -32 160 -35 22 -3 71 -12 110 -21 99 -21 120 -20
144 11 47 60 12 127 -95 179 -38 19 -75 35 -81 35 -6 0 -25 17 -41 38 -46 57
-58 155 -37 283 15 91 13 82 59 264 22 90 41 170 81 350 7 33 16 77 20 98 6
37 6 38 43 31 20 -4 44 -10 53 -15 45 -23 228 -41 362 -36 75 3 143 9 150 14
6 4 19 8 27 10 18 2 118 54 187 96 65 40 154 122 178 165 11 17 22 32 26 32 9
0 81 105 107 156 34 67 69 185 86 289 30 180 33 252 16 365 -14 90 -23 118
-66 199 -54 103 -132 191 -207 235 -25 15 -94 47 -154 71 -133 54 -315 88
-504 94 -20 1 -30 10 -48 49 -16 35 -36 56 -69 77 -103 64 -203 71 -332 22z
m587 -408 c48 -11 103 -27 122 -35 19 -8 36 -12 39 -10 11 11 70 -31 124 -88
44 -46 62 -74 74 -116 27 -92 29 -110 28 -250 -3 -248 -79 -481 -204 -623
-103 -116 -273 -156 -482 -113 -43 9 -80 16 -83 16 -12 0 -3 64 35 224 21 94
55 258 75 364 20 106 40 203 44 215 5 12 12 49 16 82 5 33 9 62 10 65 1 3 9
41 19 85 9 44 24 108 32 143 19 73 17 73 151 41z"/>
<path d="M8103 4768 c27 -110 33 -122 70 -131 12 -3 42 -13 66 -22 24 -8 46
-14 48 -11 12 12 -21 75 -55 108 -38 36 -59 50 -108 68 -24 10 -26 9 -21 -12z"/>
<path d="M6275 4972 c-91 -6 -205 -33 -255 -61 -69 -38 -202 -168 -228 -223
-54 -113 -78 -219 -54 -242 4 -4 7 -11 7 -15 0 -3 9 -18 21 -33 56 -72 151
-89 240 -43 62 33 87 61 109 122 9 26 21 57 26 68 4 11 16 47 25 80 33 117 43
132 90 144 84 21 199 6 261 -34 13 -9 23 -12 23 -9 0 11 40 -38 55 -67 16 -30
34 -179 28 -229 -9 -84 -26 -158 -45 -195 -11 -22 -33 -78 -49 -125 -33 -92
-51 -114 -108 -130 -20 -5 -180 -12 -356 -14 -306 -4 -324 -6 -420 -31 -55
-15 -110 -33 -122 -41 -12 -8 -27 -14 -33 -14 -27 0 -178 -150 -223 -220 -58
-93 -104 -207 -123 -305 -4 -22 -8 -42 -9 -45 -20 -73 -5 -232 30 -313 34 -81
153 -180 260 -218 153 -54 289 -40 458 46 60 30 111 55 113 55 3 0 3 -8 0 -17
-15 -51 -16 -154 -1 -189 8 -20 15 -44 15 -54 0 -10 16 -35 35 -56 19 -22 35
-42 35 -46 0 -17 119 -65 185 -76 205 -33 283 -11 326 95 17 42 21 67 16 112
-9 100 -42 128 -156 130 -52 1 -111 29 -111 51 0 5 36 92 80 194 44 101 80
189 80 194 0 9 57 132 80 174 6 10 10 22 10 27 0 5 27 65 60 134 33 69 60 129
60 132 0 6 89 204 122 270 33 67 69 166 93 253 26 95 33 273 15 344 -13 49
-60 146 -87 179 -70 85 -220 179 -353 220 -42 13 -169 25 -225 21z m97 -1181
c16 -1 16 -5 -3 -53 -11 -29 -36 -84 -54 -123 -18 -38 -45 -99 -60 -135 -69
-166 -184 -402 -204 -416 -47 -36 -174 -93 -229 -104 -91 -19 -152 -8 -219 37
-81 55 -119 124 -116 216 1 38 11 96 24 134 22 67 79 172 105 194 8 6 14 17
14 24 0 26 128 129 209 168 76 37 109 43 301 53 74 3 136 7 138 9 1 1 19 1 40
-1 20 -2 45 -3 54 -3z"/>
<path d="M12895 4729 c-140 -15 -291 -89 -370 -182 -134 -155 -213 -418 -215
-713 -2 -191 85 -525 199 -765 89 -189 287 -429 429 -522 74 -48 167 -93 209
-103 102 -22 284 -12 383 21 98 33 171 80 240 151 37 40 75 85 83 100 84 153
132 303 148 462 9 88 9 95 -12 130 -44 71 -99 112 -152 112 -108 0 -157 -94
-121 -236 9 -38 17 -105 18 -149 1 -73 -2 -87 -34 -150 -32 -64 -41 -73 -95
-102 -33 -17 -99 -39 -147 -49 -81 -17 -90 -17 -135 -2 -73 25 -117 42 -123
49 -3 3 -20 14 -37 23 -51 26 -166 144 -216 223 -25 39 -68 114 -95 166 l-48
95 90 43 c78 38 105 58 186 139 194 194 227 241 346 480 54 111 77 251 63 396
-9 95 -36 161 -92 223 -35 37 -130 97 -201 125 -108 44 -165 50 -301 35z m85
-205 c39 -27 100 -86 120 -120 11 -16 24 -62 30 -102 10 -63 9 -82 -10 -159
-72 -306 -94 -355 -216 -503 -67 -81 -104 -117 -146 -143 l-27 -17 -21 71
c-12 39 -30 100 -40 137 -10 37 -27 99 -38 137 -44 153 -45 273 -6 475 10 53
79 154 125 185 83 54 181 71 229 39z"/>
<path d="M9035 4154 c-50 -16 -107 -79 -124 -134 -27 -92 13 -201 89 -240 47
-24 62 -25 135 -5 138 36 210 133 176 237 -18 54 -102 126 -166 143 -52 13
-70 13 -110 -1z"/>
<path d="M11653 4114 c-40 -6 -92 -23 -116 -37 -43 -25 -114 -94 -159 -152
-12 -16 -30 -38 -40 -49 -9 -10 -22 -31 -28 -47 -7 -16 -16 -29 -20 -29 -4 0
-11 35 -14 79 -9 99 -29 139 -81 157 -71 24 -216 15 -342 -21 -40 -12 -68 -29
-108 -68 -45 -44 -54 -59 -60 -100 -15 -97 27 -132 154 -132 l85 0 27 -40 c32
-46 38 -70 49 -180 12 -108 56 -484 74 -620 8 -60 18 -146 22 -190 3 -44 8
-89 10 -100 2 -11 9 -72 16 -135 17 -178 -6 -231 -127 -288 -55 -27 -66 -37
-71 -62 -8 -36 -8 -34 -1 -70 9 -43 38 -54 106 -41 68 13 97 17 226 31 55 6
116 14 135 17 66 10 75 11 180 23 142 17 156 32 123 127 -14 41 -15 41 -87 57
-101 23 -140 63 -162 167 -9 41 -18 94 -20 119 -2 25 -7 58 -10 74 -4 16 -7
48 -9 70 -3 50 -11 101 -35 231 -19 101 -26 167 -35 350 -3 55 -11 147 -17
205 -13 131 -13 135 9 169 82 128 170 199 272 221 53 11 61 10 102 -10 24 -12
59 -39 78 -59 37 -40 87 -140 96 -193 3 -18 10 -46 15 -63 4 -16 11 -59 15
-95 3 -36 10 -82 16 -102 5 -20 18 -100 29 -176 28 -198 27 -194 40 -337 6
-71 15 -157 21 -190 6 -33 13 -118 15 -189 4 -121 7 -133 35 -187 59 -110 168
-176 279 -170 51 3 217 63 254 92 13 10 29 19 34 19 5 0 23 17 38 38 26 33 29
44 28 109 -2 78 -17 113 -73 167 -40 39 -81 38 -154 -3 -37 -21 -70 -31 -97
-31 -45 0 -47 3 -54 70 -2 25 -11 95 -19 155 -9 61 -18 142 -22 180 -31 365
-75 709 -109 837 -47 185 -141 316 -268 376 -76 36 -147 43 -245 26z"/>
<path d="M10000 3738 c-25 -4 -57 -10 -71 -12 -14 -3 -75 -35 -134 -73 -88
-55 -119 -82 -167 -141 -57 -72 -133 -215 -158 -297 -7 -22 -17 -49 -21 -60
-43 -99 -47 -430 -8 -655 34 -199 77 -285 214 -425 87 -89 112 -109 177 -139
99 -45 171 -66 227 -66 57 0 160 21 227 47 60 24 222 140 256 185 27 35 111
198 121 233 3 11 19 65 35 120 73 248 90 475 47 631 -59 212 -150 417 -220
493 -48 53 -142 118 -181 126 -16 4 -63 15 -104 26 -76 19 -156 21 -240 7z
m179 -187 c60 -31 107 -85 149 -174 77 -163 95 -252 94 -473 -1 -171 -7 -255
-23 -338 -6 -28 -16 -92 -24 -143 -16 -111 -44 -176 -126 -289 -67 -92 -85
-104 -155 -104 -56 0 -105 20 -161 66 -107 88 -182 360 -176 644 2 134 19 348
32 405 36 165 45 194 82 251 22 34 52 72 67 85 40 35 95 75 112 82 32 12 92 6
129 -12z"/>
<path d="M8755 3618 c-26 -15 -33 -25 -46 -72 l-11 -39 56 -54 c74 -71 83
-103 68 -236 -7 -56 -19 -142 -27 -192 -9 -49 -17 -112 -19 -140 -3 -51 -16
-139 -41 -280 -8 -44 -19 -120 -26 -170 -6 -49 -18 -107 -26 -128 -18 -42 -85
-92 -136 -102 -86 -17 -137 -52 -137 -95 0 -38 32 -75 66 -78 16 -1 83 -11
149 -21 66 -11 156 -25 200 -31 44 -6 134 -20 199 -32 l119 -21 24 27 c30 36
30 86 0 123 -13 15 -26 36 -30 46 -3 9 -12 17 -20 17 -15 0 -79 65 -96 97 -27
53 -32 116 -16 218 9 55 20 132 25 170 5 39 12 79 14 90 3 11 16 99 30 195 13
96 32 207 41 245 16 71 67 171 95 186 20 10 81 36 99 41 36 10 47 149 12 164
-36 15 -132 31 -201 33 -41 1 -127 13 -190 27 -128 27 -146 28 -175 12z"/>
</g>
</svg>
